<?xml version="1.0" encoding="UTF-8"?>
<svg id="_レイヤー_1" data-name="レイヤー 1" xmlns="http://www.w3.org/2000/svg" width="120mm" height="26.546mm" xmlns:xlink="http://www.w3.org/1999/xlink" version="1.1" viewBox="0 0 340.157 75.249">
  <defs>
    <style>
      .cls-1 {
        fill: #006934;
      }

      .cls-1, .cls-2, .cls-3, .cls-4, .cls-5, .cls-6, .cls-7, .cls-8, .cls-9, .cls-10, .cls-11, .cls-12, .cls-13, .cls-14, .cls-15, .cls-16, .cls-17, .cls-18, .cls-19, .cls-20, .cls-21, .cls-22, .cls-23, .cls-24, .cls-25, .cls-26, .cls-27, .cls-28, .cls-29, .cls-30, .cls-31, .cls-32, .cls-33, .cls-34, .cls-35, .cls-36, .cls-37, .cls-38, .cls-39 {
        stroke-width: 0px;
      }

      .cls-40 {
        stroke-width: .005px;
      }

      .cls-40, .cls-5, .cls-41 {
        fill: none;
      }

      .cls-40, .cls-41 {
        stroke: #2370b9;
        stroke-miterlimit: 10;
      }

      .cls-2 {
        opacity: .2;
      }

      .cls-2, .cls-36 {
        fill: #fff;
      }

      .cls-3 {
        fill: #943123;
      }

      .cls-4 {
        fill: #d9957e;
      }

      .cls-42 {
        clip-path: url(#clippath);
      }

      .cls-6 {
        fill: #1a1a1a;
      }

      .cls-7 {
        fill: #de4a13;
      }

      .cls-8 {
        fill: #1c334f;
      }

      .cls-9 {
        fill: #0d7668;
      }

      .cls-10 {
        fill: #ea5518;
      }

      .cls-11 {
        fill: #ccc;
      }

      .cls-12 {
        fill: #fbfbfc;
      }

      .cls-13 {
        fill: #324263;
      }

      .cls-14 {
        fill: #e95015;
      }

      .cls-15 {
        fill: #7d281e;
      }

      .cls-16 {
        fill: #00a29a;
      }

      .cls-17 {
        fill: #173f5a;
      }

      .cls-18 {
        fill: #ea5253;
      }

      .cls-19 {
        fill: #040000;
      }

      .cls-20 {
        fill: #da5015;
      }

      .cls-21 {
        fill: #dddcdc;
      }

      .cls-22 {
        fill: #d94a4b;
      }

      .cls-23 {
        fill: #d04418;
      }

      .cls-24 {
        fill: #f2f2f2;
      }

      .cls-25 {
        fill: #4e4d4d;
      }

      .cls-26 {
        fill: #1d3345;
      }

      .cls-27 {
        fill: #171c61;
      }

      .cls-28 {
        fill: #12569e;
      }

      .cls-41 {
        stroke-width: .025px;
      }

      .cls-29 {
        fill: #0f9083;
      }

      .cls-30 {
        fill: #ad3c23;
      }

      .cls-31 {
        fill: #273b4f;
      }

      .cls-32 {
        fill: #034d70;
      }

      .cls-33 {
        fill: #757575;
      }

      .cls-34 {
        fill: #bcbcbb;
      }

      .cls-35 {
        fill: #bed4da;
      }

      .cls-37 {
        fill: #e6e6e5;
      }

      .cls-38 {
        fill: #2370b9;
      }

      .cls-39 {
        fill: #e83828;
      }
    </style>
    <clipPath id="clippath">
      <path class="cls-5" d="M57.617,37.845l-.065.035-.008.031.018-.003.022-.025.026-.006.034-.008.033-.006.04-.045.006-.028-.027.012-.031.021-.048.023ZM56.845,37.111l.028.025.006.005.024.006.015-.017-.007-.027-.025-.022-.041.029ZM56.955,36.986l.006.022-.017.033-.029.006-.023.009.019.023.027-.007.008.024-.021.011.007.016.044-.012.072-.052-.008-.041-.075.056-.004-.019.074-.06-.003-.02-.011-.009.011-.062-.008-.028.018-.064.004-.062.008-.05-.044-.012-.056.037-.038.042-.013.022-.017.057-.019.029.005.047.014.036.032.028.025-.018.011.016ZM57.849,36.97l.009-.017.005-.015-.02-.018v-.021s.005-.006.005-.006l.024.006-.009.02.01.007.002.014.017.009.011-.013.023-.04-.016-.025-.014.004-.058-.005-.009-.027-.016.011-.011-.014-.01.014.006.026.023.012v.013s-.008.007-.008.007v.017s.004.027.004.027l.01-.002.008.024.014-.009ZM56.775,37.218l.031.015.023-.033.029-.033-.006-.031-.022-.013-.02.003-.002.021-.041-.009-.022-.013-.038.08.03.006.037.006ZM58.091,37.751l-.057.04-.042-.005h-.049s-.078.024-.078.024l-.053.014-.026.029-.053.041v.065s-.028.017-.028.017l-.004.019-.039.003-.047-.037-.017.014-.01.025-.015.008-.035-.073-.027.033.008.039-.007.017-.033.019-.061-.045-.02-.06.046-.073.039-.033.061.014.01-.012-.075-.053.009-.065-.022-.075.007-.08.005-.048.028-.003.024-.065-.016-.008-.031.035-.03-.035-.029.006.046-.052.019-.041v-.022s-.012-.015-.012-.015l-.077-.008-.068-.037.01.051-.024.008-.037-.037-.045.013-.031.023.027.036.007.038h.023s.02.034.02.034l-.006.043.027.036-.018.009-.033-.035-.097.023-.043-.017-.01-.043.013-.083.045-.008.016-.053-.05-.008.005-.048-.016-.039.022-.031.057.023-.003.077.024-.013.091-.01-.005-.132-.06.008-.063-.033-.108-.016-.061.041.016.079.041.009.017.074-.066-.033-.026-.054-.004-.071-.027.007-.04.045-.013.048.054.022.009.054.028.025-.049.039-.082.047-.068.005-.085.017-.054.07h-.05s-.131.033-.131.033l-.04.11-.026.029.061.054-.019.004-.022.065.056-.003.005.044-.012.04.017.045.024-.006.015.028.048-.01.007.038-.015.053-.014.047.004.008.037-.076.013-.088-.007-.025.012-.03h.013s.019-.049.019-.049l.033-.006.057-.017.076.033.114.054.058.051.024.053.071.074.096.022.091.035.065.012v-.012s-.117-.041-.117-.041l.01-.008.119.03.064.008.06-.006.088-.052.047-.03.044.012.061-.014.005-.008-.007-.006.005-.015.019-.002.032.028.01.048.032.052.032.007.035-.004.074.023.087-.011.055.052.114.097.108.092.111.065.09-.019.023-.036v-.018s-.048.022-.048.022l-.039-.003-.022-.011-.013-.043-.01-.015-.016.011-.016-.006v-.035s-.028-.024-.028-.024l-.016-.006.018-.013v-.016s-.021-.011-.021-.011l.013-.014.013-.024-.017-.028-.04-.008.022-.008.007-.044-.016-.067-.03-.05.003-.046.007-.051-.031-.051-.032-.043-.023-.069-.056.009-.06.029ZM56.805,37.094l-.005-.03-.01-.019-.031.021.004.041.027.005.016-.018ZM57.493,37.372l.014.044.015-.008.037-.011.005-.023-.018-.016-.033.004-.014-.027-.007.036ZM56.776,37.331l.017.015.01.03.025.024h.041s.076-.056.076-.056l.006-.049-.046-.015-.027-.07-.02.014v.031s-.04.014-.04.014l-.055-.017-.021.002-.031.025.01.017.01.07.032.014.013-.048ZM56.879,37.027l.035-.013-.034-.03-.028.017h-.037s.005.035.005.035l.039-.003.02-.006ZM57.923,35.83l.004-.026-.027-.007-.023.019.017.015.027.012.003-.012ZM57.567,36.432l.033.023.021-.002-.023-.054.036-.007-.003-.023-.05.002-.002-.012-.009-.051h-.015s-.037.041-.037.041l-.008.026.011.026h-.016s-.002.022-.002.022l.045.023.018-.013ZM58.135,35.554l.051-.012.004-.04-.028-.016-.02.016-.016.013.012.008-.023.019.021.012ZM58.21,35.455l.002-.019h-.018s-.011.018-.011.018l-.011.007-.004.014.025-.003.016-.018ZM58.442,35.155l-.014.015.002.019.013.011.01-.031-.012-.015ZM58.202,35.528l.017.005.017.007.007-.015.015-.017h-.013s-.018.004-.018.004l-.005.015-.013-.007-.007.008ZM57.945,36.325l.015.002.004-.009-.002-.017-.021.011.004.012ZM57.858,35.874l.031-.028-.013-.011-.028-.006-.026.017-.023-.008-.033.019.022.02.019.017.011.004.04-.024ZM57.671,36.152l.014-.015.004-.024v-.029s-.023-.031-.023-.031l-.005.027-.006.018-.022.004v.019s.018.016.018.016v.013s-.017.001-.017.001l-.009.017.003.02.026-.017.017-.019ZM57.927,36.264l.037-.02.002-.011-.035.007-.031-.019-.028-.044-.011-.039.005-.053-.025-.003-.003.02.003.018-.009.036.023.054.05.053.024.002ZM59.383,36.259s.029-.035.029-.035l-.008-.015-.007.008-.003.012-.025.026.012.036.018.016.03.014.008-.009-.024-.021.029.005.005-.017-.037-.006.014-.028-.014-.006-.023.033s-.006-.012-.005-.013ZM59.801,36.2l-.036.006-.037-.025-.027-.005-.017.002-.024-.017h-.004s.008.024.008.024l.025.031.008.032-.013.01-.048.006-.016-.037-.04.026.003.011-.009.013v.018s.009.024.009.024l-.005.006h-.013s-.012.007-.012.007v.036s-.005.025-.005.025l.016.025v.031s-.025.042-.025.042l-.006.035.026.046.039.022.033.025.014.02v.009s.008.006.008.006l.035-.011v-.018s.014-.029.014-.029l.019-.026-.002-.021.016-.032.03-.029.033-.009.035.003h.02s.014-.01.014-.01l.026.021h.02s.023-.015.023-.015l.003-.022.019.004.005-.027.008-.009.004-.019-.011-.018-.01-.03-.011-.042-.034-.068-.032-.028-.03-.006-.043-.013ZM59.655,36.085l.006-.009-.024.004-.023.003-.048.025-.033.011-.006.022.002.014-.009.011-.022-.015-.019.012-.01.021.024-.006.014-.006-.005.015.012.003.011-.013.035-.015.025.005.008.022.02-.022.022-.01.014-.011v-.015s-.008-.007-.008-.007l.008-.012.033-.004.028-.013.009-.011h-.024s-.04.004-.04.004ZM59.673,36.033l-.015.017-.007.013.019-.002.011-.013.003-.029-.009-.014-.007.008.005.021ZM57.634,36.878l.008-.035-.002-.01-.018-.006-.025.016-.017.031-.019-.002-.004.028.034.009.032-.01.011-.022ZM58.094,36.938l.02.013.007.002.004-.011-.005-.011-.014-.01-.008.002-.011-.014-.007.003-.002.009.018.003v.009s-.002.006-.002.006ZM60.212,36.193l-.016.009-.027-.02-.024-.013-.005.013.029.013.013.011.012.022.004.016.017.005.015.024.005-.006v-.041s-.007-.036-.007-.036l-.012-.01-.005.015ZM58.676,35.093h-.017s-.033.03-.033.03l.005.015-.025-.003-.044.031-.016.007-.015.022-.036.029-.013.026-.019.026h.042s.002.007.002.007l-.025.007-.017-.005-.006.007.009.023-.016.047-.042.009-.028.02-.006.043-.037.018-.018.003-.021.015-.008.016-.015.017-.014.023-.009.005h.015s0,.01,0,.01l.003.007.005-.004.025.003-.004.016-.011.013.003.015-.007.008-.021.007.039.013-.007.008-.041.012-.011-.002v-.009s-.01-.002-.01-.002l-.023.003-.02.008-.015.017-.01.012-.002.009.02.003.009.004-.017.029-.01.008h-.006s-.003-.007-.003-.007l-.015.017-.007.013v.013s-.01.003-.01.003l-.012-.003-.007-.002h-.003s-.006.006-.006.006l.002.01h.009s.009-.011.009-.011l.009.002.003.007-.013.007-.01.006.008.01.01-.002v.033s-.018-.028-.018-.028l-.013-.011-.017-.036-.017-.002h-.015s-.019.006-.019.006l-.019.012-.009.024.007.002-.002.009-.014-.008-.007.003-.011.017-.006-.014-.018.013.002.012.017.017.019.002-.008.016.01.003v.018s-.01-.002-.01-.002l-.005.034h.007s-.005.017-.005.017l.002.027.012.019.031.003-.021.053h.013s.018.009.018.009l.011-.01.021-.005-.007.01-.012.004-.016.011-.008.004h-.005s0,.009,0,.009h.009s.009.003.009.003l-.008.004v.007s.025,0,.025,0l-.012.011-.009-.004-.013-.007-.019-.002-.007.003.024.004v.012s.008.01.008.01h.026s.009.006.009.006l.016.01h.012s.018-.015.018-.015l-.004.016.027.012.015.03-.011.013-.009-.025-.021-.019h-.021s-.03-.009-.03-.009l-.017-.007-.017.002-.011-.014-.02-.009-.008.007-.006.012-.004.002v-.003s0-.007,0-.007v-.007s-.008.002-.008.002l-.002.007.007.011.023.016.009.014.003.009.008.007.004-.005.028.016.007-.008.022-.004.011.012-.032.01-.024.013-.024.02-.006.005-.019.002v.011s.014-.003.014-.003l.012-.006h.018s.009.015.009.015v.003s-.017-.004-.017-.004v.018s-.011.011-.011.011l.003.013-.004.007-.013-.009-.005.01v.025s-.003.026-.003.026l.012.01-.007.015h-.019s-.002-.008-.002-.008l.005-.01h-.017s-.008.007-.008.007l-.011.01h.013s.018.013.018.013h.013s.009.01.009.01l-.017.008.003.011v.024s.018.005.018.005l-.002.005-.011.007-.013.005-.003.008.007.004.022-.008.002.01-.021.009-.012.002-.015-.005-.012-.01-.021.007h-.012s.026-.013.026-.013l.022-.012.011-.02-.005-.023-.013-.005-.018.006-.035.013-.019.015-.02.008-.019.021-.006-.003.006-.022-.024.01-.017.012-.018.028v.016s-.008.022-.008.022l-.003.022.012.017-.005.004-.008-.007v.027s.01-.003.01-.003l.005-.006.012.027.018.044.007.046-.002.036.01.019.027.02.018.008.018-.009.002-.017v-.021s.009.002.009.002l.021.008.021.002.005.006.014.006.009-.005-.005-.013.009-.022-.021-.017-.005-.011v-.016s-.008-.013-.008-.013l-.012.002-.02-.005-.016-.02-.003-.02.005-.015-.004-.01-.004-.005h-.006s-.006-.01-.006-.01l-.003-.013.009-.011.01-.006.011.004v.012s.007.025.007.025l.002.021.007.006.016.006.013.011.015-.003.009-.005.005-.013.01-.023.014-.011.012-.006v.007s-.002.017-.002.017l-.014.011-.011.013v.018s-.007.007-.007.007l.004.005.008-.002.005-.008.01-.002.014.01-.003.006-.018.003-.002.009.005.011.01.007.018.008-.005.006v.013s-.004.006-.004.006l-.01.004-.005.013-.008.021-.007.01-.013.007-.005.013-.01-.003-.016-.01-.003-.009-.013-.005-.012-.003-.002.015.021.027.02.009-.004.011-.018.028.013.026v.022s.003.008.003.008l.002.019-.016.013.005.015-.015.017-.002.009.017-.002.027-.004.03.02.007.011-.028.02-.022.025-.004.019.02.009.02.032.026.019.011-.015.024-.006.006-.009.004-.019.008-.021-.003-.025-.012-.01-.006-.014.008-.033-.011-.004-.002-.008.011-.013.009-.013.003-.02.006-.014h.022s.018,0,.018,0l.023-.007.032-.008.016.008v.012s-.009.012-.009.012l-.011.013.004.005.033-.015-.004-.01-.003-.02-.009-.012-.011-.002v-.016s-.024.009-.024.009h-.031s-.03-.004-.03-.004l-.002-.01.037-.011.049-.007.022.011.03.004.029.011.01-.012-.014-.015v-.015s-.031-.005-.031-.005l.021-.028.049.023.022-.008.012-.025.018-.016.012-.019h.013s.02.027.02.027l.021.027-.008.014-.016.011-.028.022-.035.034-.018.006-.016.03.011.004-.003.027-.04.015-.034.014-.028.011-.004-.012-.014-.008-.02.003-.039.044-.014.032-.013.041-.03.022-.003.02v.032s.012.023.012.023l.018.022-.003.073.017.053.035.012.02.043.035.015.078.004.056-.013.024-.034.028-.032.01-.035.019-.021.03-.005.02-.014.032-.005.014.036.095.014.056.032.002.038.027.024.064.018.06.033.059.016.019.017.024.002.025-.043.011-.016.013-.024-.003-.032v-.041s-.012-.03-.012-.03l-.02-.013.007-.017-.003-.023-.015-.016-.02-.009-.002-.008v-.026s.005-.025.005-.025l.002-.03-.017-.019-.027-.024-.019-.007-.032-.02-.018-.022-.002-.031-.003-.034.002-.045-.005-.047-.023-.048-.014-.023-.007-.004-.015.027-.015.031-.01.016h-.018s-.03-.005-.03-.005l-.032.005-.035-.003-.058-.015-.057-.014-.049-.009.023-.007.013-.007.022.006.057.004.017.007.028.002.043.004.032.018.018.003.009-.017.012-.03.019-.055.005-.039.006-.028-.011-.014-.005-.015-.007-.021h-.019s-.024.01-.024.01l-.017-.007-.003.037-.014.013-.015-.005-.045.006-.032-.009.015-.017h.015s.054-.011.054-.011l.008-.023.029-.002.023-.019.029-.035.019-.023.012.006.022-.006.012.003.039-.003.002-.009v-.013s.013.004.013.004l.016.012.036.017.046.017.037.006.023.008.006-.014-.007-.027-.014-.013-.011-.018-.02-.009-.003-.015.005-.023-.005-.042.002-.021-.01-.013.004-.009.022-.02.003-.02.043.011.028.006.012.013.015-.017-.004-.014h.018s.032.015.032.015l.048.038h.031s.032.016.032.016l.057-.012-.019-.012-.032-.011h-.032s-.033.003-.033.003l-.012-.003-.018-.025-.01-.013.002-.005.012.003.012-.004.023-.005.021-.002.015.011.005-.017v-.031s-.004-.023-.004-.023l-.024-.013-.026-.006-.043.002-.012-.01-.004-.024.005-.013.009-.011.007.006.012-.004-.004.011v.016s.016.005.016.005l.007-.015-.01-.019-.018-.006.01-.033.016-.032-.009-.042-.018-.041-.025-.029-.026-.008-.033-.004h-.019s-.008-.017-.008-.017l-.002-.019v-.012s-.018.013-.018.013l.002.014-.019.004h-.023s.002-.009.002-.009l-.004-.024-.005-.013.017-.002.016.01.003-.022.01-.012.01.003.012.013.011-.013.019-.002.016.018.018.01.012-.03-.012-.015-.017-.007-.032.003-.019-.002.002-.024-.007-.008-.011-.009-.008-.024.003-.008.016-.009-.005-.023-.021-.036-.031-.038-.028-.023-.055-.028-.02-.011-.024.01-.008.021-.016.004-.01.012-.007-.006-.019-.038-.017-.026-.024-.023.01-.031.015-.008.011-.026-.008-.01.007-.008.014-.011.008.005.011-.034h-.022s-.019-.026-.019-.026l-.018-.008.006-.018.007-.017.025.01.011-.003-.02-.028-.02-.009-.005-.011h.015s.035.018.035.018l.009.021.042.038.003.023.027.022.066.018.075.016-.016-.02-.014-.013-.011-.009.002-.007-.014-.006-.011-.012.005-.008-.005-.011-.019-.002-.013-.007.003-.01h-.015s-.022-.011-.022-.011l-.009-.002-.004.009-.007.006-.029-.026-.007-.013-.004-.016.018.003-.011-.014-.006-.012.008-.012h.022s-.012-.012-.012-.012l-.016-.027-.015-.028-.004-.024.015-.012-.009-.008h-.019s-.038.005-.038.005l-.024.008.012-.023-.013-.005-.012-.019-.019-.004.014-.009.011-.015.008-.002.044-.022-.005-.004-.038-.017-.013-.018ZM60.203,36.314l-.002.04-.003.048.005.021.032-.008.002-.017-.003-.053-.011-.054-.018-.016-.011.005.009.033ZM59.295,36.266l-.004.038-.005.025.003.011-.015.01.009.021.032.007.024.004.035-.034.014-.015-.027-.034.002-.026-.034-.009-.007-.023h-.035s.009.026.009.026ZM59.973,36.493l-.008.004-.008.009.027.02.02.013.008-.009v-.024s-.016-.031-.016-.031h-.011s-.012.019-.012.019ZM59.212,36.105l-.014.006v.009s.016.016.016.016v.007s.032.011.032.011l.004.008.021.004.002-.009-.016-.01.006-.007.023-.005.012.003.009.008v.009s-.005-.007-.005-.007l-.013.003-.011.007.012.01.005-.006.006.005.003.009.012-.006.002-.011.009-.013.006.007-.008.016-.006.022.009.008.006-.022.017.007.019-.01-.01-.019-.017-.015h-.023s-.019-.016-.019-.016l-.008.004h-.016s-.013,0-.013,0l-.015.008h-.012s-.006-.02-.006-.02l-.021-.01ZM59.137,36.08l.014.01.011-.003-.011-.018-.02-.018-.005.01.011.018ZM58.973,36.549l.009.021.021.012.009-.011.003-.012-.021-.01h-.021ZM58.932,37.046l-.003.02-.01.016.009.018.024.015.009.027.027.017.017.002.016-.018-.013-.033-.041-.082-.027-.024h-.02s.012.04.012.04ZM59.444,36.378l.024-.039-.025.007-.035.034-.029.018-.035.026-.028.013-.032-.026-.061.009-.059.013h-.021s-.016.018-.016.018l.034.005.057.004.071.01.04-.017.061-.045.054-.03ZM59.473,36.224l.01-.012.017-.01.004-.005-.018.003-.016.018v.005ZM59.461,36.247l.01-.012-.008-.007-.013.014.01.005ZM59.085,35.914l.033.012.008-.004-.009-.023-.005-.021.015-.027.005-.029-.005-.023-.023-.022-.032-.03-.029-.003-.019-.007.004-.011.018-.013-.006-.01.003-.018h-.02s0,.006,0,.006l-.041.01-.005.006.034.019v.018s.012.004.012.004l.016.004.007.011.019.004.023.027v.03s-.002.027-.002.027l-.011.022.009.042ZM58.85,35.654l.026.006.055.023.04.014-.008-.01.007-.008-.036-.005-.022-.018.018-.009-.127-.026-.003.008h.013s.003.008.003.008l.033.015Z"/>
    </clipPath>
  </defs>
  <g>
    <path class="cls-16" d="M101.925,27.693c-.032,1.609-.379,3.052-1.041,4.329-.661,1.277-1.578,2.365-2.744,3.265-1.167.899-2.539,1.584-4.115,2.058-1.578.473-3.296.71-5.158.71-.726,0-1.561-.04-2.507-.118-.945-.079-1.916-.198-2.91-.355-.993-.157-1.963-.37-2.91-.639-.945-.268-1.782-.575-2.507-.922.158-.347.331-.78.521-1.301s.379-.938.568-1.254l.284.095c1.608.505,3.2.93,4.778,1.277,1.576.347,3.233.52,4.967.52,1.073,0,2.208-.149,3.407-.449s2.302-.765,3.312-1.396c1.01-.63,1.845-1.435,2.507-2.413.663-.977.994-2.16.994-3.548,0-.379-.126-.954-.379-1.727-.252-.772-.757-1.545-1.513-2.319-.757-.772-1.846-1.458-3.265-2.058-1.42-.599-3.296-.899-5.63-.899-.947,0-1.996-.126-3.146-.378-1.152-.252-2.232-.663-3.241-1.23-1.01-.568-1.854-1.309-2.531-2.224-.679-.914-1.018-2.035-1.018-3.359v-.189c.063-2.176,1.089-3.879,3.075-5.109s4.699-1.876,8.137-1.94c.788,0,1.521.016,2.2.047.678.032,1.349.111,2.011.237.661.126,1.332.292,2.01.497s1.396.481,2.152.828l-.803,2.555c-1.041-.536-2.13-.961-3.265-1.277-1.136-.315-2.572-.473-4.306-.473-1.199,0-2.302.095-3.312.283-1.01.189-1.885.482-2.626.876-.741.394-1.324.891-1.75,1.49-.426.599-.639,1.294-.639,2.081,0,.757.229,1.428.686,2.011.456.584,1.032,1.081,1.726,1.49.693.41,1.467.718,2.318.922.852.206,1.672.308,2.461.308h.425c1.42,0,2.886.189,4.4.568,1.513.379,2.893.962,4.139,1.751,1.246.789,2.263,1.782,3.052,2.981.789,1.199,1.183,2.602,1.183,4.211v.189Z"/>
    <path class="cls-16" d="M125.107,20.408h-8.184l-8.328,17.126h-3.216l15.612-31.272,15.376,31.272h-3.075l-8.184-17.126ZM118.199,17.711h5.677l-2.839-5.819-2.839,5.819Z"/>
    <path class="cls-16" d="M160.73,6.356h4.684l-18.735,12.868,19.917,18.309h-3.879l-18.309-16.464v16.464h-2.744V6.356h2.744v10.976l16.321-10.976Z"/>
    <path class="cls-1" d="M189.92,20.408h-8.184l-8.328,17.126h-3.216l8.61-17.268c-.538-.095-1.136-.26-1.798-.497s-1.262-.623-1.797-1.159l1.987-1.893c.316.253.71.466,1.183.639.473.174,1.04.276,1.703.307l5.724-11.402,15.376,31.272h-3.075l-8.184-17.126ZM183.013,17.711h5.677l-2.839-5.819-2.839,5.819Z"/>
    <path class="cls-1" d="M209.223,20.36v17.173h-2.744V6.356h13.672c1.387,0,2.649.118,3.785.355,1.135.237,2.105.623,2.91,1.159.803.537,1.427,1.254,1.868,2.153.442.899.663,2.027.663,3.382,0,.821-.103,1.632-.308,2.437-.205.804-.544,1.538-1.018,2.2-.472.663-1.104,1.206-1.892,1.632-.789.426-1.767.655-2.933.686l8.989,17.173h-3.17l-8.705-17.173h-11.118ZM209.223,9.1v8.61h11.07c1.009,0,1.908-.055,2.697-.165.788-.11,1.45-.315,1.987-.615.536-.299.947-.734,1.231-1.301.284-.568.426-1.308.426-2.224,0-1.64-.513-2.768-1.538-3.382-1.025-.615-2.673-.923-4.944-.923h-10.928Z"/>
    <path class="cls-1" d="M263.676,33.797c-1.64,1.348-3.288,2.355-4.944,3.022-1.656.667-3.493,1-5.511,1-2.209,0-4.282-.418-6.221-1.254-1.939-.836-3.627-1.979-5.062-3.43-1.436-1.45-2.564-3.138-3.383-5.062-.82-1.923-1.231-3.958-1.231-6.103,0-2.208.41-4.282,1.231-6.221.819-1.94,1.947-3.635,3.383-5.086,1.434-1.45,3.123-2.594,5.062-3.43,1.939-.835,4.013-1.254,6.221-1.254,1.671,0,3.265.26,4.778.781,1.515.52,3.123,1.38,4.826,2.578l-2.13,1.656c-1.229-.883-2.428-1.482-3.596-1.798-1.166-.315-2.46-.473-3.879-.473-1.83,0-3.541.348-5.133,1.043-1.593.695-2.981,1.635-4.164,2.82s-2.122,2.591-2.815,4.218c-.694,1.628-1.041,3.357-1.041,5.19,0,1.769.347,3.453,1.041,5.048.693,1.595,1.632,2.986,2.815,4.171,1.183,1.185,2.57,2.125,4.164,2.821,1.592.695,3.303,1.042,5.133,1.042.819,0,1.584-.055,2.294-.166.71-.11,1.396-.284,2.058-.521.663-.237,1.308-.559,1.94-.97.63-.41,1.293-.899,1.987-1.467l2.176,1.845Z"/>
    <path class="cls-1" d="M295.232,6.356v2.744h-11.07v28.434h-2.744V9.1h-11.165v-2.744h24.979Z"/>
    <path class="cls-1" d="M305.971,6.356v31.178h-2.744V6.356h2.744Z"/>
    <path class="cls-1" d="M338.85,33.797c-1.64,1.348-3.288,2.355-4.944,3.022-1.656.667-3.493,1-5.511,1-2.209,0-4.282-.418-6.221-1.254-1.939-.836-3.627-1.979-5.062-3.43-1.436-1.45-2.564-3.138-3.383-5.062-.82-1.923-1.231-3.958-1.231-6.103,0-2.208.41-4.282,1.231-6.221.819-1.94,1.947-3.635,3.383-5.086,1.434-1.45,3.123-2.594,5.062-3.43,1.939-.835,4.013-1.254,6.221-1.254,1.671,0,3.265.26,4.778.781,1.515.52,3.123,1.38,4.826,2.578l-2.13,1.656c-1.229-.883-2.428-1.482-3.596-1.798-1.166-.315-2.46-.473-3.879-.473-1.83,0-3.541.348-5.133,1.043-1.593.695-2.981,1.635-4.164,2.82s-2.122,2.591-2.815,4.218c-.694,1.628-1.041,3.357-1.041,5.19,0,1.769.347,3.453,1.041,5.048.693,1.595,1.632,2.986,2.815,4.171,1.183,1.185,2.57,2.125,4.164,2.821,1.592.695,3.303,1.042,5.133,1.042.819,0,1.584-.055,2.294-.166.71-.11,1.396-.284,2.058-.521.663-.237,1.308-.559,1.94-.97.63-.41,1.293-.899,1.987-1.467l2.176,1.845Z"/>
  </g>
  <g>
    <path class="cls-39" d="M94.298,55.012v1.788h-7.214v18.528h-1.788v-18.528h-7.275v-1.788h16.278Z"/>
    <path class="cls-39" d="M101.296,64.137v11.19h-1.788v-20.316h8.909c.905,0,1.726.077,2.467.231.739.154,1.371.406,1.895.756.524.35.93.817,1.218,1.402.287.586.432,1.321.432,2.205,0,.534-.066,1.063-.201,1.587s-.354,1.002-.663,1.434-.72.786-1.233,1.063c-.514.278-1.152.427-1.911.447l5.856,11.19h-2.066l-5.672-11.19h-7.245ZM101.296,56.8v5.611h7.213c.658,0,1.244-.036,1.758-.108.513-.072.944-.205,1.295-.401.349-.195.616-.478.801-.848.185-.37.277-.852.277-1.449,0-1.069-.334-1.804-1.002-2.205-.668-.401-1.742-.601-3.222-.601h-7.121Z"/>
    <path class="cls-39" d="M131.662,64.168h-5.333l-5.426,11.16h-2.096l10.173-20.377,10.019,20.377h-2.005l-5.332-11.16ZM127.16,62.411h3.699l-1.849-3.792-1.85,3.792Z"/>
    <path class="cls-39" d="M150.773,71.043l8.139-16.031h1.942l-10.081,20.377-10.111-20.377h1.973l8.138,16.031Z"/>
    <path class="cls-39" d="M164.245,75.328v-20.316h14.366v1.788h-12.578v5.611h10.852v1.788h-10.852v9.341h12.824v1.788h-14.612Z"/>
    <path class="cls-39" d="M196.582,73.54v1.788h-14.612v-20.316h1.788v18.528h12.824Z"/>
    <path class="cls-27" d="M228.644,64.168h-5.333l-5.426,11.16h-2.096l10.173-20.377,10.019,20.377h-2.005l-5.332-11.16ZM224.142,62.411h3.699l-1.849-3.792-1.85,3.792Z"/>
    <path class="cls-27" d="M258.423,62.411v.108c0,.052.005.139.016.262.01.123.025.298.046.524.02.226.041.524.062.894,0,.082.005.154.015.216s.016.134.016.216c.02.226.03.442.03.647v.647c0,.535-.03,1.054-.092,1.557-.062.504-.185,1.033-.37,1.588-.349.987-.853,1.881-1.511,2.682-.658.802-1.413,1.48-2.265,2.035-.853.555-1.762.982-2.728,1.28-.967.297-1.933.447-2.898.447-1.398,0-2.718-.277-3.961-.832-1.244-.555-2.334-1.31-3.268-2.266-.935-.956-1.676-2.055-2.22-3.298-.545-1.243-.817-2.564-.817-3.961,0-1.418.277-2.759.833-4.023.554-1.264,1.305-2.369,2.25-3.314.944-.945,2.04-1.69,3.283-2.235,1.243-.544,2.543-.817,3.9-.817.719,0,1.52.052,2.405.154.883.103,1.767.35,2.652.74l-.71,1.726c-.781-.37-1.562-.601-2.343-.694s-1.439-.139-1.973-.139c-1.192,0-2.307.237-3.345.709-1.038.473-1.937,1.11-2.698,1.912-.761.801-1.361,1.721-1.803,2.759-.443,1.038-.663,2.112-.663,3.222,0,1.213.231,2.338.693,3.376.463,1.038,1.09,1.942,1.881,2.713s1.696,1.378,2.712,1.819c1.018.442,2.081.663,3.191.663.925,0,1.869-.19,2.836-.57.966-.38,1.845-.899,2.636-1.557s1.433-1.434,1.927-2.328c.492-.894.739-1.855.739-2.883,0-.308-.01-.621-.03-.94-.02-.318-.042-.621-.062-.909,0-.062-.006-.118-.015-.17-.011-.051-.016-.108-.016-.17h-7.337v-1.788h9.001Z"/>
    <path class="cls-27" d="M262.676,75.328v-20.316h14.366v1.788h-12.578v5.611h10.852v1.788h-10.852v9.341h12.824v1.788h-14.612Z"/>
    <path class="cls-27" d="M296.68,55.012v20.624l-14.489-16.555v16.247h-1.788v-20.747l14.489,16.431v-16h1.788Z"/>
    <path class="cls-27" d="M318.105,72.892c-1.069.878-2.142,1.534-3.222,1.969-1.078.435-2.276.651-3.591.651-1.439,0-2.79-.272-4.053-.817-1.264-.544-2.364-1.289-3.299-2.235s-1.67-2.045-2.204-3.299c-.534-1.253-.801-2.579-.801-3.977,0-1.438.267-2.79.801-4.054s1.269-2.369,2.204-3.314c.935-.945,2.035-1.69,3.299-2.235,1.263-.544,2.614-.817,4.053-.817,1.089,0,2.128.17,3.114.509.987.339,2.035.899,3.145,1.68l-1.388,1.079c-.801-.575-1.582-.966-2.343-1.171-.761-.205-1.602-.308-2.528-.308-1.192,0-2.308.226-3.345.679-1.038.453-1.943,1.065-2.713,1.838-.771.772-1.383,1.688-1.833,2.748-.453,1.06-.678,2.188-.678,3.381,0,1.153.225,2.25.678,3.289.451,1.04,1.063,1.946,1.833,2.718.771.772,1.676,1.385,2.713,1.837,1.037.453,2.152.679,3.345.679.534,0,1.032-.035,1.495-.108.462-.072.909-.185,1.341-.339.432-.154.852-.365,1.264-.632.41-.267.842-.586,1.295-.956l1.418,1.202Z"/>
    <path class="cls-27" d="M320.201,55.012h2.558l8.015,7.46,7.369-7.46h2.466l-8.939,9.156v11.16h-1.788v-11.16l-9.68-9.156Z"/>
  </g>
  <g>
    <path class="cls-35" d="M55.549,75.116H.724c-.149,0-.27-.121-.27-.27H.454c0-.149.121-.27.27-.27h54.825c.149,0,.27.121.27.27h0c0,.149-.121.27-.27.27Z"/>
    <g>
      <g>
        <path class="cls-4" d="M53.169,33.437c.211-.428.74-.59,1.155-.353.861.492,1.984,1.141,2.678,1.007.88-.17,2.134.303,2.326,1.555.192,1.252-.94,2.491-1.714,1.075s-1.382-.823-2.315-1.258c-.412-.192-1.405-.747-1.75-.915-.413-.201-.583-.699-.38-1.111h0Z"/>
        <path class="cls-9" d="M42.172,14.893c-.3,3.057.06,10.432.337,12.216.477,3.077,4.653,2.505,4.586-.476-.074-3.311.435-9.412.805-11.707.644-4.005-5.165-5.766-5.727-.033Z"/>
        <path class="cls-9" d="M55.756,33.189l-1.213,2.253s-4.919-2.539-8.43-4.717c-.957-.594-1.777-1.137-2.657-1.885-1.908-1.623.582-5.741,4.287-2.253.835.786,8.013,6.602,8.013,6.602Z"/>
      </g>
      <path class="cls-22" d="M44.153,53.451c-.588,2.668-4.855,1.572-4.706-.738.114-1.768.429-14.673.429-14.673l7.211,1.502c.238-1.073-1.087,5.529-2.934,13.909Z"/>
      <path class="cls-22" d="M43.938,54.199c-1.224,2.198-7.038,11.342-8.915,15.425-.934,2.033-3.741.783-3.258-.596.484-1.378,3.033-7.878,5.265-12.551.955-1.998,2.14-3.474,2.505-4.062,1.73-2.787,5.732-.603,4.403,1.784Z"/>
      <path class="cls-26" d="M36.645,73.306l-6.226-2.603c.556-.559,1.493-2.277,1.493-2.277,1.814.695,3.371.839,3.371.839.463.254,2.48,2.246,3.178,2.965.09.093.168.188.236.285-.09.686-.573,1.409-2.051.791Z"/>
      <path class="cls-31" d="M38.849,74.228c-.31.4-1.13.995-2.813.292l-6.043-2.526c-.486-.203-.142-.732.411-1.276.005-.005.009-.009.014-.014l6.226,2.603c1.478.618,1.961-.105,2.051-.791.457.653.423,1.363.153,1.712Z"/>
      <path class="cls-18" d="M49.648,53.188c-.032,2.731-4.432,2.529-4.757.237-.249-1.754-2.406-14.57-2.406-14.57l7.199.118c.014-1.099.064,5.635-.036,14.215Z"/>
      <path class="cls-18" d="M49.641,53.495c-.276,2.501-2.091,13.183-2.238,17.675-.073,2.236-3.145,2.172-3.234.714-.088-1.458-.258-8.438-.012-13.611.105-2.212.626-4.032.735-4.716.514-3.24,5.05-2.777,4.75-.062Z"/>
      <path class="cls-26" d="M50.305,73.477l-6.749.014c.296-.73.493-2.678.493-2.678,1.941-.063,3.433-.533,3.433-.533.526.055,3.157,1.109,4.079,1.501.119.051.228.108.328.171.183.667.018,1.521-1.584,1.524Z"/>
      <path class="cls-31" d="M52.694,73.472c-.131.489-.656,1.356-2.48,1.359l-6.549.014c-.527.001-.415-.62-.115-1.335.002-.006.005-.012.007-.019l6.749-.014c1.602-.003,1.767-.857,1.584-1.524.674.425.918,1.093.805,1.519Z"/>
      <path class="cls-4" d="M47.195,13.598l-4.325-1.675s.386-3.714.574-5.276c.259-2.158,3.979-1.786,3.693.589-.106.878-.135,2.593-.117,3.474.015.724.175,2.889.175,2.889Z"/>
      <path class="cls-4" d="M50.116,6.175c-.047-.836-.463-2.097-.513-2.256-.438-1.409-.73-2.316-2.171-2.634-1.615-.356-3.79.257-4.08,2.26-.639,4.415,2.248,4.941,3.201,5.117.953.176,1.661.307,1.661.307.577.113.9-.014,1.033-.579.131-.555.278-1.207.325-1.81.007-.085.072-.154.157-.165.172-.023.391-.143.386-.24Z"/>
      <path class="cls-29" d="M49.616,13.088c1.131,3.185.999,19.941.938,24.907-.01.823-.522,1.554-1.29,1.852-3.017,1.174-6.35,1.514-9.886,1.313-1.178-.067-2.04-1.138-1.866-2.304l3.955-25.488c.619-4.245,6.751-3.906,8.148-.281Z"/>
      <path class="cls-13" d="M43.012,6.821c.211.275,2.13-.288,2.428-.604.298-.316-.517-2.183.298-2.596.654-.331.92.402.971,1.133.064.925.612-.79,1.258-1.161.645-.372,1.174-.317,1.675-.446.574-.148.163-1.242-.463-1.81-.724-.657-1.627-.953-2.625-.95-1.953.005-3.309,1.429-3.446,2.855-.137,1.426-.339,3.263-.096,3.579Z"/>
      <g>
        <path class="cls-32" d="M47.665,11.37c-2.488-.793-3.448-.388-5.931.296-6.07,1.674-8.913,2.861-10.485,7.462-.316.924-.58,1.986-.809,3.218-1.369,7.361,1.324,8.455,6.306,8.25.672-.028,1.4-.189,2.153-.464,3.617-1.319,7.821-5.234,9.331-9.355,1.825-4.979,1.937-8.609-.565-9.406ZM44.631,23.589c-2.358,3.615-5.434,4.747-5.434,4.747.001-.007.002-.014.004-.021,0-.005.002-.01.003-.016.001-.006.002-.011.003-.017.004-.019.008-.043.014-.071.002-.012.004-.023.006-.035.002-.012.004-.024.007-.036.002-.011.004-.023.006-.034.143-.769.619-3.326.987-5.452.573-3.321,1.028-7.086,2.342-9.098.408-.624.898-1.078,1.5-1.3,2.172-.797,2.951-.22,3.935,1.444.984,1.664-1.015,6.274-3.373,9.888Z"/>
        <path class="cls-17" d="M42.569,13.556c-1.314,2.011-1.769,5.776-2.342,9.098-.367,2.126-.843,4.683-.987,5.452-.002.011-.005.023-.006.034-.003.012-.005.024-.007.036-.008.036-.014.072-.02.107-.001.006-.002.011-.003.017-.001.005-.002.011-.003.016-.002.007-.003.014-.004.021-.108.641-.207,1.238-.299,1.796-.753.275-1.48.436-2.153.464-4.982.205-7.675-.889-6.306-8.25.229-1.232.493-2.293.809-3.218,3.024.412,3.43.48,5.075-.092,1.648-.574,3.371-4.327,6.245-5.48Z"/>
      </g>
      <g>
        <polygon class="cls-28" points="63.2 33.859 58.798 38.83 58.01 39.72 56.737 38.593 55.589 37.576 60.558 31.964 60.779 31.715 63 33.683 63.2 33.859"/>
        <g>
          <line class="cls-40" x1="55.612" y1="37.597" x2="60.803" y2="31.736"/>
          <line class="cls-40" x1="55.657" y1="37.637" x2="60.847" y2="31.776"/>
          <line class="cls-40" x1="55.702" y1="37.676" x2="60.892" y2="31.815"/>
          <line class="cls-40" x1="55.746" y1="37.716" x2="60.937" y2="31.855"/>
          <line class="cls-40" x1="55.791" y1="37.755" x2="60.981" y2="31.894"/>
          <line class="cls-40" x1="55.836" y1="37.795" x2="61.026" y2="31.934"/>
          <line class="cls-40" x1="55.88" y1="37.834" x2="61.071" y2="31.974"/>
          <line class="cls-40" x1="55.925" y1="37.874" x2="61.115" y2="32.013"/>
          <line class="cls-40" x1="55.97" y1="37.913" x2="61.16" y2="32.053"/>
          <line class="cls-40" x1="56.014" y1="37.953" x2="61.204" y2="32.092"/>
          <line class="cls-40" x1="56.059" y1="37.992" x2="61.249" y2="32.132"/>
          <line class="cls-40" x1="56.104" y1="38.032" x2="61.294" y2="32.171"/>
          <line class="cls-40" x1="56.148" y1="38.071" x2="61.338" y2="32.211"/>
          <line class="cls-40" x1="56.193" y1="38.111" x2="61.383" y2="32.25"/>
          <line class="cls-40" x1="56.238" y1="38.151" x2="61.428" y2="32.29"/>
          <line class="cls-40" x1="56.282" y1="38.19" x2="61.472" y2="32.329"/>
          <line class="cls-40" x1="56.327" y1="38.23" x2="61.517" y2="32.369"/>
          <line class="cls-40" x1="56.371" y1="38.269" x2="61.562" y2="32.408"/>
          <line class="cls-40" x1="56.416" y1="38.309" x2="61.606" y2="32.448"/>
          <line class="cls-40" x1="56.461" y1="38.348" x2="61.651" y2="32.488"/>
          <line class="cls-40" x1="56.505" y1="38.388" x2="61.696" y2="32.527"/>
          <line class="cls-40" x1="56.55" y1="38.427" x2="61.74" y2="32.567"/>
          <line class="cls-40" x1="56.595" y1="38.467" x2="61.785" y2="32.606"/>
          <line class="cls-40" x1="56.639" y1="38.506" x2="61.83" y2="32.646"/>
          <line class="cls-40" x1="56.684" y1="38.546" x2="61.874" y2="32.685"/>
          <line class="cls-40" x1="56.729" y1="38.585" x2="61.919" y2="32.725"/>
          <line class="cls-40" x1="56.773" y1="38.625" x2="61.963" y2="32.764"/>
          <line class="cls-40" x1="56.818" y1="38.665" x2="62.008" y2="32.804"/>
          <line class="cls-40" x1="56.863" y1="38.704" x2="62.053" y2="32.843"/>
          <line class="cls-40" x1="56.907" y1="38.744" x2="62.097" y2="32.883"/>
          <line class="cls-40" x1="56.952" y1="38.783" x2="62.142" y2="32.923"/>
          <line class="cls-40" x1="56.997" y1="38.823" x2="62.187" y2="32.962"/>
          <line class="cls-40" x1="57.041" y1="38.862" x2="62.231" y2="33.002"/>
          <line class="cls-40" x1="57.086" y1="38.902" x2="62.276" y2="33.041"/>
          <line class="cls-40" x1="57.131" y1="38.941" x2="62.321" y2="33.081"/>
          <line class="cls-40" x1="57.175" y1="38.981" x2="62.365" y2="33.12"/>
          <line class="cls-40" x1="57.22" y1="39.02" x2="62.41" y2="33.16"/>
          <line class="cls-40" x1="57.264" y1="39.06" x2="62.455" y2="33.199"/>
          <line class="cls-40" x1="57.309" y1="39.1" x2="62.499" y2="33.239"/>
          <line class="cls-40" x1="57.354" y1="39.139" x2="62.544" y2="33.278"/>
          <line class="cls-40" x1="57.398" y1="39.179" x2="62.589" y2="33.318"/>
          <line class="cls-40" x1="57.443" y1="39.218" x2="62.633" y2="33.357"/>
          <line class="cls-40" x1="57.488" y1="39.258" x2="62.678" y2="33.397"/>
          <line class="cls-40" x1="57.532" y1="39.297" x2="62.723" y2="33.437"/>
          <line class="cls-40" x1="57.577" y1="39.337" x2="62.767" y2="33.476"/>
          <line class="cls-40" x1="57.622" y1="39.376" x2="62.812" y2="33.516"/>
          <line class="cls-40" x1="57.666" y1="39.416" x2="62.856" y2="33.555"/>
          <line class="cls-40" x1="57.711" y1="39.455" x2="62.901" y2="33.595"/>
          <line class="cls-40" x1="57.756" y1="39.495" x2="62.946" y2="33.634"/>
          <line class="cls-40" x1="57.8" y1="39.534" x2="62.99" y2="33.674"/>
          <line class="cls-40" x1="57.845" y1="39.574" x2="63.035" y2="33.713"/>
          <line class="cls-40" x1="57.89" y1="39.614" x2="63.08" y2="33.753"/>
          <line class="cls-40" x1="57.934" y1="39.653" x2="63.124" y2="33.792"/>
          <line class="cls-40" x1="57.979" y1="39.693" x2="63.169" y2="33.832"/>
        </g>
        <g class="cls-42">
          <g>
            <line class="cls-41" x1="55.629" y1="37.579" x2="60.789" y2="31.752"/>
            <line class="cls-41" x1="55.66" y1="37.633" x2="60.847" y2="31.776"/>
            <line class="cls-41" x1="55.704" y1="37.673" x2="60.892" y2="31.815"/>
            <line class="cls-41" x1="55.749" y1="37.713" x2="60.937" y2="31.855"/>
            <line class="cls-41" x1="55.794" y1="37.752" x2="60.981" y2="31.894"/>
            <line class="cls-41" x1="55.838" y1="37.792" x2="61.026" y2="31.934"/>
            <line class="cls-41" x1="55.883" y1="37.831" x2="61.071" y2="31.974"/>
            <line class="cls-41" x1="55.928" y1="37.871" x2="61.115" y2="32.013"/>
            <line class="cls-41" x1="55.972" y1="37.91" x2="61.16" y2="32.053"/>
            <line class="cls-41" x1="56.017" y1="37.95" x2="61.204" y2="32.092"/>
            <line class="cls-41" x1="56.062" y1="37.989" x2="61.249" y2="32.132"/>
            <line class="cls-41" x1="56.106" y1="38.029" x2="61.294" y2="32.171"/>
            <line class="cls-41" x1="56.151" y1="38.068" x2="61.338" y2="32.211"/>
            <line class="cls-41" x1="56.196" y1="38.108" x2="61.383" y2="32.25"/>
            <line class="cls-41" x1="56.24" y1="38.147" x2="61.428" y2="32.29"/>
            <line class="cls-41" x1="56.285" y1="38.187" x2="61.472" y2="32.329"/>
            <line class="cls-41" x1="56.33" y1="38.227" x2="61.517" y2="32.369"/>
            <line class="cls-41" x1="56.374" y1="38.266" x2="61.562" y2="32.408"/>
            <line class="cls-41" x1="56.419" y1="38.306" x2="61.606" y2="32.448"/>
            <line class="cls-41" x1="56.464" y1="38.345" x2="61.651" y2="32.488"/>
            <line class="cls-41" x1="56.508" y1="38.385" x2="61.696" y2="32.527"/>
            <line class="cls-41" x1="56.553" y1="38.424" x2="61.74" y2="32.567"/>
            <line class="cls-41" x1="56.597" y1="38.464" x2="61.785" y2="32.606"/>
            <line class="cls-41" x1="56.642" y1="38.503" x2="61.83" y2="32.646"/>
            <line class="cls-41" x1="56.687" y1="38.543" x2="61.874" y2="32.685"/>
            <line class="cls-41" x1="56.731" y1="38.582" x2="61.919" y2="32.725"/>
            <line class="cls-41" x1="56.776" y1="38.622" x2="61.963" y2="32.764"/>
            <line class="cls-41" x1="56.821" y1="38.661" x2="62.008" y2="32.804"/>
            <line class="cls-41" x1="56.865" y1="38.701" x2="62.053" y2="32.843"/>
            <line class="cls-41" x1="56.91" y1="38.741" x2="62.097" y2="32.883"/>
            <line class="cls-41" x1="56.955" y1="38.78" x2="62.142" y2="32.923"/>
            <line class="cls-41" x1="56.999" y1="38.82" x2="62.187" y2="32.962"/>
            <line class="cls-41" x1="57.044" y1="38.859" x2="62.231" y2="33.002"/>
            <line class="cls-41" x1="57.089" y1="38.899" x2="62.276" y2="33.041"/>
            <line class="cls-41" x1="57.133" y1="38.938" x2="62.321" y2="33.081"/>
            <line class="cls-41" x1="57.178" y1="38.978" x2="62.365" y2="33.12"/>
            <line class="cls-41" x1="57.223" y1="39.017" x2="62.41" y2="33.16"/>
            <line class="cls-41" x1="57.267" y1="39.057" x2="62.455" y2="33.199"/>
            <line class="cls-41" x1="57.312" y1="39.096" x2="62.499" y2="33.239"/>
            <line class="cls-41" x1="57.356" y1="39.136" x2="62.544" y2="33.278"/>
            <line class="cls-41" x1="57.401" y1="39.175" x2="62.589" y2="33.318"/>
            <line class="cls-41" x1="57.446" y1="39.215" x2="62.633" y2="33.357"/>
            <line class="cls-41" x1="57.49" y1="39.255" x2="62.678" y2="33.397"/>
            <line class="cls-41" x1="57.535" y1="39.294" x2="62.723" y2="33.437"/>
            <line class="cls-41" x1="57.58" y1="39.334" x2="62.767" y2="33.476"/>
            <line class="cls-41" x1="57.624" y1="39.373" x2="62.812" y2="33.516"/>
            <line class="cls-41" x1="57.669" y1="39.413" x2="62.856" y2="33.555"/>
            <line class="cls-41" x1="57.714" y1="39.452" x2="62.901" y2="33.595"/>
            <line class="cls-41" x1="57.758" y1="39.492" x2="62.946" y2="33.634"/>
            <line class="cls-41" x1="57.803" y1="39.531" x2="62.99" y2="33.674"/>
            <line class="cls-41" x1="57.848" y1="39.571" x2="63.035" y2="33.713"/>
            <line class="cls-41" x1="57.892" y1="39.61" x2="63.08" y2="33.753"/>
            <line class="cls-41" x1="57.937" y1="39.65" x2="63.124" y2="33.792"/>
            <line class="cls-41" x1="57.995" y1="39.674" x2="63.155" y2="33.847"/>
          </g>
        </g>
        <g>
          <rect class="cls-2" x="55.121" y="35.869" width="5.64" height=".047" transform="translate(-7.343 55.473) rotate(-48.472)"/>
          <rect class="cls-2" x="55.46" y="36.169" width="5.64" height=".047" transform="translate(-7.454 55.827) rotate(-48.472)"/>
          <rect class="cls-2" x="56.238" y="36.858" width="5.64" height=".047" transform="translate(-7.708 56.643) rotate(-48.472)"/>
          <rect class="cls-2" x="56.577" y="37.158" width="5.64" height=".047" transform="translate(-7.818 56.997) rotate(-48.472)"/>
          <g>
            <polygon class="cls-11" points="61.377 35.077 61.245 34.961 61.282 34.936 61.397 35.038 61.377 35.077"/>
            <path class="cls-37" d="M61.396,35.097l-.038.043c-.03.033-.062.064-.097.092-.012.01-.024.019-.037.028l-.073.052-.112-.099.043-.079c.007-.013.015-.027.023-.04.024-.038.05-.074.08-.107l.038-.043c.01-.012.028-.013.039-.002l.131.116c.012.01.013.028.002.04Z"/>
            <path class="cls-24" d="M61.34,35.052l-.042.047c-.033.037-.068.071-.106.103-.013.011-.026.021-.04.031l-.05.037-.063-.056.043-.079c.007-.013.015-.027.023-.04.024-.038.05-.074.08-.107l.038-.043c.01-.012.028-.013.039-.002l.077.068c.012.01.012.029,0,.042Z"/>
            <path class="cls-37" d="M61.261,35.232c-.012.01-.024.019-.037.028l-.073.052-.112-.099.043-.079c.007-.013.015-.027.023-.04l.155.138Z"/>
            <path class="cls-12" d="M61.076,35.312l-.027-.024.049-.055c.035-.04.073-.077.113-.112l.013-.011s.005-.002.008,0h0s.003.005,0,.008l-.009.014c-.03.044-.062.086-.098.126l-.049.055Z"/>
            <polygon class="cls-11" points="59.922 33.788 59.79 33.672 59.826 33.647 59.942 33.749 59.922 33.788"/>
            <path class="cls-24" d="M59.94,33.808l-.038.043c-.03.033-.062.064-.097.092-.012.01-.024.019-.037.028l-.073.052-.112-.099.043-.079c.007-.013.015-.027.023-.04.024-.038.05-.074.08-.107l.038-.043c.01-.012.028-.013.04-.002l.131.116c.012.01.013.028.002.04Z"/>
            <path class="cls-37" d="M59.94,33.808l-.038.043c-.03.033-.062.064-.097.092-.012.01-.024.019-.037.028l-.073.052-.112-.099.043-.079c.007-.013.015-.027.023-.04.024-.038.05-.074.08-.107l.038-.043c.01-.012.028-.013.039-.002l.131.116c.012.01.013.028.002.04Z"/>
            <path class="cls-24" d="M59.885,33.763l-.042.047c-.033.037-.068.071-.106.103-.013.011-.026.021-.04.031l-.05.037-.063-.056.043-.079c.007-.013.015-.027.023-.04.024-.038.05-.074.08-.107l.038-.043c.01-.012.028-.013.039-.002l.077.068c.012.01.012.029,0,.042Z"/>
            <path class="cls-37" d="M59.805,33.943c-.012.01-.024.019-.037.028l-.073.052-.112-.099.043-.079c.007-.013.015-.027.023-.04l.155.138Z"/>
            <path class="cls-12" d="M59.669,33.969l-.049.055-.027-.024.049-.055c.035-.04.073-.077.113-.112l.013-.011s.005-.002.008,0c.002.002.003.005,0,.008l-.009.014c-.03.044-.062.086-.098.126Z"/>
            <path class="cls-21" d="M59.669,33.969l-.049.055-.014-.012.168-.19s.003.005,0,.008l-.009.014c-.03.044-.062.086-.098.126Z"/>
            <polygon class="cls-11" points="60.515 33.801 60.383 33.684 60.419 33.659 60.535 33.761 60.515 33.801"/>
            <path class="cls-37" d="M60.533,33.82l-.038.043c-.03.033-.062.064-.097.092-.012.01-.024.019-.037.028l-.073.052-.112-.099.043-.079c.007-.013.015-.027.023-.04.024-.038.05-.074.08-.107l.038-.043c.01-.012.028-.013.039-.002l.131.116c.012.01.013.028.002.04Z"/>
            <path class="cls-24" d="M60.478,33.775l-.042.047c-.033.037-.068.071-.106.103-.013.011-.026.021-.04.031l-.05.037-.063-.056.043-.079c.007-.013.015-.027.023-.04.024-.038.05-.074.08-.107l.038-.043c.01-.012.028-.013.039-.002l.077.068c.012.01.012.029,0,.042Z"/>
            <path class="cls-37" d="M60.399,33.955c-.012.01-.024.019-.037.028l-.073.052-.112-.099.043-.079c.007-.013.015-.027.023-.04l.155.138Z"/>
            <path class="cls-12" d="M60.214,34.036l-.027-.024.049-.055c.035-.04.073-.077.113-.112l.013-.011s.005-.002.008,0h0s.003.005,0,.008l-.009.014c-.03.044-.062.086-.098.126l-.049.055Z"/>
            <path class="cls-21" d="M60.262,33.981l-.049.055-.014-.012.168-.19s.003.005,0,.008l-.009.014c-.03.044-.062.086-.098.126Z"/>
            <polygon class="cls-11" points="61.295 34.491 61.163 34.375 61.2 34.35 61.315 34.452 61.295 34.491"/>
            <path class="cls-37" d="M61.314,34.511l-.038.043c-.03.033-.062.064-.097.092-.012.01-.024.019-.037.028l-.073.052-.112-.099.043-.079c.007-.013.015-.027.023-.04.024-.038.05-.074.08-.107l.038-.043c.01-.012.028-.013.039-.002l.131.116c.012.01.013.028.002.04Z"/>
            <path class="cls-24" d="M61.258,34.466l-.042.047c-.033.037-.068.071-.106.103-.013.011-.026.021-.04.031l-.05.037-.063-.056.043-.079c.007-.013.015-.027.023-.04.024-.038.05-.074.08-.107l.038-.043c.01-.012.028-.013.039-.002l.077.068c.012.01.012.029,0,.042Z"/>
            <path class="cls-37" d="M61.179,34.646c-.012.01-.024.019-.037.028l-.073.052-.112-.099.043-.079c.007-.013.015-.027.023-.04l.155.138Z"/>
            <path class="cls-12" d="M60.994,34.726l-.027-.024.049-.055c.035-.04.073-.077.113-.112l.013-.011s.005-.002.008,0h0s.003.005,0,.008l-.009.014c-.03.044-.062.086-.098.126l-.049.055Z"/>
            <path class="cls-21" d="M61.043,34.672l-.049.055-.014-.012.168-.19s.003.005,0,.008l-.009.014c-.03.044-.062.086-.098.126Z"/>
            <path class="cls-21" d="M61.125,35.258l-.049.055-.014-.012.168-.19s.003.005,0,.008l-.009.014c-.03.044-.062.086-.098.126Z"/>
            <g>
              <polygon class="cls-24" points="60.786 33.93 60.156 34.642 59.954 34.463 59.949 34.461 59.525 34.311 59.516 34.308 59.021 34.134 59.012 34.131 58.728 34.03 58.849 33.894 60.786 33.93"/>
              <polygon class="cls-24" points="61.27 36.038 61.149 36.175 61.015 35.905 61.011 35.896 60.778 35.427 60.774 35.418 60.574 35.014 60.572 35.01 60.37 34.831 61 34.119 61.046 34.447 61.27 36.038"/>
              <polygon class="cls-37" points="61.037 34.383 60.521 34.965 60.37 34.831 61 34.119 61.008 34.177 61.037 34.383"/>
              <polygon class="cls-11" points="61.008 34.177 60.403 34.861 60.37 34.831 61 34.119 61.008 34.177"/>
              <g>
                <polygon class="cls-11" points="60.324 34.453 60.318 34.459 60.116 34.281 60.11 34.279 59.65 34.17 59.64 34.168 59.104 34.04 59.021 34.134 59.012 34.131 59.101 34.031 59.104 34.031 60.12 34.273 60.324 34.453"/>
                <rect class="cls-11" x="59.488" y="34.233" width=".193" height=".009" transform="translate(-5.55 56.145) rotate(-48.472)"/>
                <polygon class="cls-11" points="60.122 34.28 59.957 34.466 59.954 34.463 59.949 34.461 60.115 34.274 60.122 34.28"/>
              </g>
              <g>
                <polygon class="cls-11" points="61.104 35.805 61.015 35.905 61.011 35.896 61.094 35.803 60.903 35.286 60.899 35.277 60.735 34.833 60.733 34.827 60.531 34.649 60.537 34.642 60.74 34.822 60.741 34.823 61.104 35.805"/>
                <rect class="cls-11" x="60.744" y="35.345" width=".193" height=".009" transform="translate(-5.96 57.46) rotate(-48.472)"/>
                <polygon class="cls-11" points="60.74 34.827 60.574 35.014 60.572 35.01 60.569 35.007 60.733 34.822 60.74 34.827"/>
              </g>
            </g>
            <polygon class="cls-24" points="60.028 35.982 59.929 36.094 59.702 35.635 59.637 35.508 59.929 35.27 60.028 35.982"/>
            <polygon class="cls-24" points="59.774 35.132 59.055 35.121 58.956 35.232 59.569 35.448 59.774 35.132"/>
            <polygon class="cls-37" points="59.956 35.466 59.702 35.635 59.644 35.521 59.637 35.508 59.929 35.27 59.956 35.466"/>
            <polygon class="cls-11" points="59.935 35.309 59.646 35.526 59.637 35.508 59.929 35.27 59.935 35.309"/>
            <line class="cls-24" x1="59.797" y1="35.263" x2="59.797" y2="35.263"/>
            <path class="cls-24" d="M61.536,33.553l-1.237,1.397c-.051.058-.134.148-.194.197-.113.093-.406.32-.538.421,0,0,0,0,0,0-.04.031-.065.05-.065.05-.006.005-.015.004-.021-.001-.003-.003-.005-.006-.006-.01,0-.004,0-.008.002-.011,0,0,.294-.492.397-.652.042-.065.121-.158.172-.216l1.237-1.397c.074-.088.163-.163.27-.205.029-.012.088-.032.117-.043.016-.006.039-.009.053.001,0,0,.001.001.002.002.007.006.01.015.011.025.001.01,0,.021-.002.029-.007.03-.02.091-.028.121-.029.111-.093.209-.171.293Z"/>
            <path class="cls-36" d="M59.891,34.957c.042-.065.121-.158.172-.216l1.237-1.397c.072-.085.158-.159.261-.202-.087.046-.162.113-.226.189l-1.27,1.434c-.053.06-.134.155-.177.222-.092.141-.1.13.004-.03Z"/>
            <path class="cls-37" d="M61.536,33.553l-1.237,1.397c-.051.058-.134.148-.194.197-.113.093-.406.32-.538.421.195-.194.426-.426.525-.538l1.5-1.694c.087-.098.152-.228.132-.253,0,0,.001.001.002.002.007.006.01.015.011.025.001.01,0,.021-.002.029-.007.03-.02.091-.028.121-.029.111-.093.209-.171.293Z"/>
            <g>
              <g>
                <path class="cls-8" d="M61.494,33.214l-.008.028c-.027-.004-.054,0-.079.01.024-.024.055-.037.087-.038Z"/>
                <path class="cls-8" d="M61.579,33.243l-.026.029c-.018-.015-.038-.024-.059-.029l.008-.029c.027.001.054.011.076.029Z"/>
                <path class="cls-8" d="M61.624,33.322l-.028.012c-.007-.02-.019-.039-.036-.055l.026-.029c.021.02.034.046.038.072Z"/>
                <path class="cls-8" d="M61.599,33.422c.008-.026.008-.054,0-.08l.027-.011c.003.032-.006.064-.027.091Z"/>
              </g>
              <g>
                <g>
                  <path class="cls-8" d="M61.294,33.376c-.007.008-.015.013-.018.01s0-.011.008-.019c.007-.008.015-.013.018-.01s0,.011-.008.019Z"/>
                  <path class="cls-8" d="M61.25,33.426c-.007.008-.015.013-.018.01s0-.011.008-.019c.007-.008.015-.013.018-.01s0,.011-.008.019Z"/>
                  <path class="cls-8" d="M61.205,33.477c-.007.008-.015.013-.018.01-.003-.003,0-.011.008-.019s.015-.013.018-.01c.003.003,0,.011-.008.019Z"/>
                  <path class="cls-8" d="M61.16,33.527c-.007.008-.015.013-.018.01s0-.011.008-.019c.007-.008.015-.013.018-.01s0,.011-.008.019Z"/>
                  <path class="cls-8" d="M61.115,33.578c-.007.008-.015.013-.018.01s0-.011.008-.019c.007-.008.015-.013.018-.01.003.003,0,.011-.008.019Z"/>
                  <path class="cls-8" d="M61.07,33.629c-.007.008-.015.013-.018.01s0-.011.008-.019c.007-.008.015-.013.018-.01s0,.011-.008.019Z"/>
                  <path class="cls-8" d="M61.026,33.679c-.007.008-.015.013-.018.01s0-.011.008-.019c.007-.008.015-.013.018-.01s0,.011-.008.019Z"/>
                  <path class="cls-8" d="M60.981,33.73c-.007.008-.015.013-.018.01-.003-.003,0-.011.008-.019.007-.008.015-.013.018-.01s0,.011-.008.019Z"/>
                  <path class="cls-8" d="M60.936,33.78c-.007.008-.015.013-.018.01s0-.011.008-.019c.007-.008.015-.013.018-.01s0,.011-.008.019Z"/>
                  <path class="cls-8" d="M60.891,33.831c-.007.008-.015.013-.018.01s0-.011.008-.019c.007-.008.015-.013.018-.01s0,.011-.008.019Z"/>
                  <path class="cls-8" d="M60.846,33.882c-.007.008-.015.013-.018.01-.003-.003,0-.011.008-.019.007-.008.015-.013.018-.01s0,.011-.008.019Z"/>
                  <path class="cls-8" d="M60.802,33.932c-.007.008-.015.013-.018.01s0-.011.008-.019c.007-.008.015-.013.018-.01s0,.011-.008.019Z"/>
                  <path class="cls-8" d="M60.757,33.983c-.007.008-.015.013-.018.01s0-.011.008-.019c.007-.008.015-.013.018-.01s0,.011-.008.019Z"/>
                  <path class="cls-8" d="M60.712,34.033c-.007.008-.015.013-.018.01s0-.011.008-.019c.007-.008.015-.013.018-.01s0,.011-.008.019Z"/>
                  <path class="cls-8" d="M60.667,34.084c-.007.008-.015.013-.018.01-.003-.003,0-.011.008-.019.007-.008.015-.013.018-.01s0,.011-.008.019Z"/>
                  <path class="cls-8" d="M60.622,34.134c-.007.008-.015.013-.018.01s0-.011.008-.019c.007-.008.015-.013.018-.01s0,.011-.008.019Z"/>
                  <path class="cls-8" d="M60.578,34.185c-.007.008-.015.013-.018.01s0-.011.008-.019c.007-.008.015-.013.018-.01s0,.011-.008.019Z"/>
                  <path class="cls-8" d="M60.533,34.236c-.007.008-.015.013-.018.01s0-.011.008-.019c.007-.008.015-.013.018-.01.003.003,0,.011-.008.019Z"/>
                  <path class="cls-8" d="M60.488,34.286c-.007.008-.015.013-.018.01s0-.011.008-.019c.007-.008.015-.013.018-.01s0,.011-.008.019Z"/>
                  <path class="cls-8" d="M60.443,34.337c-.007.008-.015.013-.018.01s0-.011.008-.019c.007-.008.015-.013.018-.01s0,.011-.008.019Z"/>
                  <path class="cls-8" d="M60.399,34.387c-.007.008-.015.013-.018.01s0-.011.008-.019c.007-.008.015-.013.018-.01s0,.011-.008.019Z"/>
                  <path class="cls-8" d="M60.354,34.438c-.007.008-.015.013-.018.01s0-.011.008-.019c.007-.008.015-.013.018-.01s0,.011-.008.019Z"/>
                  <path class="cls-8" d="M60.309,34.488c-.007.008-.015.013-.018.01s0-.011.008-.019c.007-.008.015-.013.018-.01s0,.011-.008.019Z"/>
                  <path class="cls-8" d="M60.264,34.539c-.007.008-.015.013-.018.01-.003-.003,0-.011.008-.019s.015-.013.018-.01,0,.011-.008.019Z"/>
                  <path class="cls-8" d="M60.219,34.59c-.007.008-.015.013-.018.01s0-.011.008-.019c.007-.008.015-.013.018-.01s0,.011-.008.019Z"/>
                  <path class="cls-8" d="M60.175,34.64c-.007.008-.015.013-.018.01-.003-.003,0-.011.008-.019.007-.008.015-.013.018-.01.003.003,0,.011-.008.019Z"/>
                  <path class="cls-8" d="M60.13,34.691c-.007.008-.015.013-.018.01s0-.011.008-.019c.007-.008.015-.013.018-.01s0,.011-.008.019Z"/>
                  <path class="cls-8" d="M60.085,34.741c-.007.008-.015.013-.018.01s0-.011.008-.019c.007-.008.015-.013.018-.01s0,.011-.008.019Z"/>
                  <path class="cls-8" d="M60.04,34.792c-.007.008-.015.013-.018.01-.003-.003,0-.011.008-.019s.015-.013.018-.01c.003.003,0,.011-.008.019Z"/>
                  <path class="cls-8" d="M59.995,34.842c-.007.008-.015.013-.018.01s0-.011.008-.019c.007-.008.015-.013.018-.01s0,.011-.008.019Z"/>
                </g>
                <g>
                  <path class="cls-8" d="M61.499,33.557c-.007.008-.015.013-.018.01-.003-.003,0-.011.008-.019.007-.008.015-.013.018-.01s0,.011-.008.019Z"/>
                  <path class="cls-8" d="M61.455,33.608c-.007.008-.015.013-.018.01s0-.011.008-.019c.007-.008.015-.013.018-.01s0,.011-.008.019Z"/>
                  <path class="cls-8" d="M61.41,33.658c-.007.008-.015.013-.018.01s0-.011.008-.019.015-.013.018-.01,0,.011-.008.019Z"/>
                  <path class="cls-8" d="M61.365,33.709c-.007.008-.015.013-.018.01s0-.011.008-.019c.007-.008.015-.013.018-.01.003.003,0,.011-.008.019Z"/>
                  <path class="cls-8" d="M61.32,33.76c-.007.008-.015.013-.018.01s0-.011.008-.019c.007-.008.015-.013.018-.01s0,.011-.008.019Z"/>
                  <path class="cls-8" d="M61.275,33.81c-.007.008-.015.013-.018.01s0-.011.008-.019c.007-.008.015-.013.018-.01s0,.011-.008.019Z"/>
                  <path class="cls-8" d="M61.231,33.861c-.007.008-.015.013-.018.01s0-.011.008-.019c.007-.008.015-.013.018-.01s0,.011-.008.019Z"/>
                  <path class="cls-8" d="M61.186,33.911c-.007.008-.015.013-.018.01s0-.011.008-.019.015-.013.018-.01c.003.003,0,.011-.008.019Z"/>
                  <path class="cls-8" d="M61.141,33.962c-.007.008-.015.013-.018.01s0-.011.008-.019c.007-.008.015-.013.018-.01s0,.011-.008.019Z"/>
                  <path class="cls-8" d="M61.096,34.013c-.007.008-.015.013-.018.01s0-.011.008-.019c.007-.008.015-.013.018-.01.003.003,0,.011-.008.019Z"/>
                  <path class="cls-8" d="M61.051,34.063c-.007.008-.015.013-.018.01s0-.011.008-.019c.007-.008.015-.013.018-.01s0,.011-.008.019Z"/>
                  <path class="cls-8" d="M61.007,34.114c-.007.008-.015.013-.018.01s0-.011.008-.019c.007-.008.015-.013.018-.01s0,.011-.008.019Z"/>
                  <path class="cls-8" d="M60.962,34.164c-.007.008-.015.013-.018.01-.003-.003,0-.011.008-.019s.015-.013.018-.01,0,.011-.008.019Z"/>
                  <path class="cls-8" d="M60.917,34.215c-.007.008-.015.013-.018.01s0-.011.008-.019c.007-.008.015-.013.018-.01s0,.011-.008.019Z"/>
                  <path class="cls-8" d="M60.872,34.265c-.007.008-.015.013-.018.01s0-.011.008-.019c.007-.008.015-.013.018-.01s0,.011-.008.019Z"/>
                  <path class="cls-8" d="M60.827,34.316c-.007.008-.015.013-.018.01-.003-.003,0-.011.008-.019.007-.008.015-.013.018-.01s0,.011-.008.019Z"/>
                  <path class="cls-8" d="M60.783,34.367c-.007.008-.015.013-.018.01s0-.011.008-.019c.007-.008.015-.013.018-.01s0,.011-.008.019Z"/>
                  <path class="cls-8" d="M60.738,34.417c-.007.008-.015.013-.018.01s0-.011.008-.019.015-.013.018-.01,0,.011-.008.019Z"/>
                  <path class="cls-8" d="M60.693,34.468c-.007.008-.015.013-.018.01s0-.011.008-.019c.007-.008.015-.013.018-.01.003.003,0,.011-.008.019Z"/>
                  <path class="cls-8" d="M60.648,34.518c-.007.008-.015.013-.018.01s0-.011.008-.019c.007-.008.015-.013.018-.01s0,.011-.008.019Z"/>
                  <path class="cls-8" d="M60.604,34.569c-.007.008-.015.013-.018.01s0-.011.008-.019c.007-.008.015-.013.018-.01s0,.011-.008.019Z"/>
                  <path class="cls-8" d="M60.559,34.619c-.007.008-.015.013-.018.01s0-.011.008-.019c.007-.008.015-.013.018-.01s0,.011-.008.019Z"/>
                  <path class="cls-8" d="M60.514,34.67c-.007.008-.015.013-.018.01s0-.011.008-.019c.007-.008.015-.013.018-.01s0,.011-.008.019Z"/>
                  <path class="cls-8" d="M60.469,34.721c-.007.008-.015.013-.018.01s0-.011.008-.019.015-.013.018-.01,0,.011-.008.019Z"/>
                  <path class="cls-8" d="M60.424,34.771c-.007.008-.015.013-.018.01s0-.011.008-.019c.007-.008.015-.013.018-.01s0,.011-.008.019Z"/>
                  <path class="cls-8" d="M60.38,34.822c-.007.008-.015.013-.018.01s0-.011.008-.019c.007-.008.015-.013.018-.01s0,.011-.008.019Z"/>
                  <path class="cls-8" d="M60.335,34.872c-.007.008-.015.013-.018.01-.003-.003,0-.011.008-.019.007-.008.015-.013.018-.01s0,.011-.008.019Z"/>
                  <path class="cls-8" d="M60.29,34.923c-.007.008-.015.013-.018.01s0-.011.008-.019c.007-.008.015-.013.018-.01s0,.011-.008.019Z"/>
                  <path class="cls-8" d="M60.245,34.973c-.007.008-.015.013-.018.01s0-.011.008-.019.015-.013.018-.01,0,.011-.008.019Z"/>
                  <path class="cls-8" d="M60.2,35.024c-.007.008-.015.013-.018.01s0-.011.008-.019c.007-.008.015-.013.018-.01s0,.011-.008.019Z"/>
                </g>
              </g>
            </g>
            <path class="cls-37" d="M59.968,35.131l-.71.751s-.007.003-.01,0c-.003-.003-.003-.007,0-.01l.66-.795c.027-.03.061-.039.077-.025.015.014.011.049-.016.079Z"/>
            <path class="cls-11" d="M59.968,35.131l-.71.751s-.007.003-.01,0l.735-.83c.015.014.011.049-.016.079Z"/>
          </g>
        </g>
        <g>
          <path class="cls-38" d="M60.33,34.68s-.004.001-.005.003l-.011.012s-.002.005,0,.007l.002.003s.006.003.009,0l.009-.011s.003-.005.004-.008c0-.003,0-.005-.003-.007-.002-.001-.003-.002-.005-.001ZM60.304,34.653s-.004.002-.005.004l-.008.009s-.002.005,0,.007l.002.003s.006.003.009,0l.006-.007c.005-.005.005-.01,0-.014-.001-.001-.003-.002-.005-.001ZM60.304,34.653s-.004.002-.005.004l-.008.009s-.002.005,0,.007l.002.003s.006.003.009,0l.006-.007c.005-.005.005-.01,0-.014-.001-.001-.003-.002-.005-.001ZM60.33,34.68s-.004.001-.005.003l-.011.012s-.002.005,0,.007l.002.003s.006.003.009,0l.009-.011s.003-.005.004-.008c0-.003,0-.005-.003-.007-.002-.001-.003-.002-.005-.001ZM60.33,34.68s-.004.001-.005.003l-.011.012s-.002.005,0,.007l.002.003s.006.003.009,0l.009-.011s.003-.005.004-.008c0-.003,0-.005-.003-.007-.002-.001-.003-.002-.005-.001ZM60.304,34.653s-.004.002-.005.004l-.008.009s-.002.005,0,.007l.002.003s.006.003.009,0l.006-.007c.005-.005.005-.01,0-.014-.001-.001-.003-.002-.005-.001ZM60.302,34.676l.006-.007c.005-.005.005-.01,0-.014-.001-.001-.003-.002-.005-.001-.002,0-.004.002-.005.004l-.008.009s-.002.005,0,.007l.002.003s.006.003.009,0ZM60.325,34.683l-.011.012s-.002.005,0,.007l.002.003s.006.003.009,0l.009-.011s.003-.005.004-.008c0-.003,0-.005-.003-.007-.002-.001-.003-.002-.005-.001-.002,0-.004.001-.005.003ZM60.695,34.366l-.145-.078s-.01-.001-.013.002l-.334.377s-.003.006-.002.01l.052.182c.002.008.013.01.018.004l.329-.372s.003-.007.002-.01l-.008-.023s0-.008.002-.01l.036-.04s.009-.005.013-.002l.012.007s.01.002.013-.002l.026-.029c.005-.005.003-.013-.003-.016ZM60.342,34.652s.003,0,.004,0c.004,0,.008.002.011.005.008.007.011.015.009.025-.002.01-.007.02-.016.03l-.033.037s-.007.003-.009,0l-.053-.07s-.002-.005,0-.007l.031-.035c.008-.009.015-.014.022-.016.007-.002.013,0,.019.005.004.004.007.008.008.013,0,.002,0,.005,0,.008,0,.004.003.006.006.006ZM60.373,34.594l.018-.021s.007-.003.009,0l.008.01s.002.005,0,.007l-.021.024s-.002.005,0,.007h0s.006.004.009.001l.023-.026s.007-.003.009,0l.008.011s.002.005,0,.007l-.046.052s-.007.003-.009,0l-.053-.07s-.002-.005,0-.007l.045-.051s.007-.003.009,0l.008.011s.001.005,0,.007l-.025.028s-.002.005,0,.007c.002.003.006.003.009,0ZM60.443,34.476l.006.014s0,.006-.003.007c-.003.001-.005.002-.007.004-.004.003-.008.006-.011.009-.003.003-.005.006-.006.009,0,.003,0,.005,0,.006.001.001.003.001.005,0,.002-.001.006-.003.01-.006.005-.004.01-.007.014-.009.004-.002.009-.003.013-.003.005,0,.009.002.014.006.005.005.009.011.01.017.001.007,0,.014-.002.021-.003.008-.007.015-.014.023-.006.006-.012.012-.018.016-.004.003-.008.005-.012.007-.003.001-.006,0-.008-.003l-.006-.015s0-.006.003-.007c.009-.004.017-.01.024-.017.003-.003.005-.006.005-.008,0-.002,0-.004,0-.005-.001-.001-.003-.001-.005,0-.002.001-.006.003-.01.006-.006.004-.01.007-.015.009-.004.002-.009.003-.013.003-.005,0-.009-.002-.014-.006-.006-.005-.009-.011-.011-.017-.002-.007,0-.014.002-.021.003-.008.007-.015.014-.023.005-.005.01-.01.015-.014.003-.002.007-.004.01-.006.003-.001.007,0,.008.003ZM60.514,34.411s.002.005,0,.007l-.013.014s-.002.005,0,.007l.039.051s.002.005,0,.007l-.014.016s-.007.003-.009,0l-.036-.048s-.007-.003-.009,0l-.01.011s-.007.003-.009,0l-.009-.012s-.001-.005,0-.007l.052-.059s.007-.003.009,0l.009.012ZM60.592,34.388l-.003.003c-.005.006-.015.004-.018-.004l-.002-.006c-.003-.009.007-.018.015-.012l.005.003c.006.003.007.011.003.016ZM60.299,34.657l-.008.009s-.002.005,0,.007l.002.003s.006.003.009,0l.006-.007c.005-.005.005-.01,0-.014-.001-.001-.003-.002-.005-.001-.002,0-.004.002-.005.004ZM60.325,34.683l-.011.012s-.002.005,0,.007l.002.003s.006.003.009,0l.009-.011s.003-.005.004-.008c0-.003,0-.005-.003-.007-.002-.001-.003-.002-.005-.001-.002,0-.004.001-.005.003ZM60.33,34.68s-.004.001-.005.003l-.011.012s-.002.005,0,.007l.002.003s.006.003.009,0l.009-.011s.003-.005.004-.008c0-.003,0-.005-.003-.007-.002-.001-.003-.002-.005-.001ZM60.304,34.653s-.004.002-.005.004l-.008.009s-.002.005,0,.007l.002.003s.006.003.009,0l.006-.007c.005-.005.005-.01,0-.014-.001-.001-.003-.002-.005-.001ZM60.304,34.653s-.004.002-.005.004l-.008.009s-.002.005,0,.007l.002.003s.006.003.009,0l.006-.007c.005-.005.005-.01,0-.014-.001-.001-.003-.002-.005-.001ZM60.33,34.68s-.004.001-.005.003l-.011.012s-.002.005,0,.007l.002.003s.006.003.009,0l.009-.011s.003-.005.004-.008c0-.003,0-.005-.003-.007-.002-.001-.003-.002-.005-.001Z"/>
          <path class="cls-38" d="M60.607,34.212l.026-.029c.004-.005.012-.005.016,0l.098.13s.003.01,0,.013l-.026.029c-.004.005-.012.005-.016,0l-.098-.13s-.003-.01,0-.013Z"/>
          <path class="cls-38" d="M60.832,34.11c.003.011.002.022,0,.034-.001.006.002.012.008.013l.03.006c.008.002.011.011.006.017l-.026.029s-.006.004-.01.003l-.039-.008s-.008,0-.01.003h0s-.004.009,0,.014l.018.023s.003.01,0,.013l-.026.029s-.012.005-.016,0l-.098-.13s-.003-.01,0-.013l.048-.054c.016-.018.032-.028.048-.031.017-.003.032.002.046.014.012.011.02.023.023.037ZM60.744,34.128l-.008.009s-.004.009,0,.013l.013.017c.004.005.012.006.016,0l.008-.009c.006-.006.008-.013.008-.019,0-.006-.003-.012-.009-.017-.009-.008-.019-.006-.029.005Z"/>
          <path class="cls-38" d="M60.99,33.802l.064.168s0,.008-.002.011l-.033.037s-.01.005-.014.002l-.042-.03c-.009-.006-.02.003-.016.012l.024.062s0,.008-.002.011l-.033.037s-.01.005-.014.002l-.132-.091c-.005-.004-.006-.011-.002-.016l.026-.029s.01-.005.014-.002l.049.034c.009.006.02-.003.016-.012l-.027-.07s0-.008.002-.011l.027-.03s.01-.005.014-.002l.049.035c.009.006.02-.003.016-.012l-.027-.071s0-.008.002-.011l.024-.027c.005-.006.015-.004.018.003Z"/>
          <path class="cls-38" d="M61.158,33.815l-.036.04s-.003.007-.002.01l.008.023s0,.008-.002.01l-.026.029c-.006.006-.016.004-.018-.004l-.052-.182s0-.007.002-.01l.03-.034s.009-.005.013-.002l.145.077c.006.003.007.011.003.016l-.026.029s-.009.005-.013.002l-.012-.007s-.01-.002-.013.002ZM61.114,33.779l-.005-.003c-.008-.005-.019.003-.015.012l.002.006c.003.008.013.01.018.004l.003-.003s.003-.013-.003-.016Z"/>
          <path class="cls-38" d="M61.263,33.649l.034.044s.003.01,0,.013l-.026.029s-.012.005-.016,0l-.031-.041s-.003-.003-.005-.004l-.098-.036c-.007-.003-.009-.011-.004-.017l.025-.029s.007-.004.012-.003l.039.014c.008.003.015-.004.014-.012l-.01-.056s0-.006.003-.009l.023-.026c.006-.007.017-.004.018.005l.021.121s0,.003.002.005Z"/>
          <path class="cls-38" d="M61.367,33.625c-.008.005-.015.01-.022.013-.005.002-.012,0-.014-.006l-.011-.028c-.002-.005,0-.011.006-.013.017-.007.032-.017.043-.031.005-.006.008-.011.01-.015.001-.004,0-.008-.002-.01-.002-.002-.006-.002-.01,0s-.01.006-.018.011c-.01.007-.019.012-.027.016-.008.004-.016.006-.025.006-.009,0-.017-.004-.026-.011-.01-.009-.017-.02-.02-.032-.003-.012-.002-.025.003-.039.005-.014.014-.028.026-.042.009-.01.018-.019.028-.025.006-.004.012-.008.018-.011.006-.003.012,0,.014.006l.011.026c.002.005,0,.011-.005.014-.005.002-.009.004-.014.007-.007.005-.014.011-.02.017-.006.006-.009.012-.01.017s0,.009.002.011c.002.002.006.002.01,0,.004-.002.01-.006.018-.011.01-.007.019-.012.026-.016.008-.004.016-.006.025-.006.009,0,.017.003.025.011.01.009.016.019.019.032.003.012.002.025-.003.039-.005.014-.014.028-.026.042-.01.012-.021.022-.033.03Z"/>
          <path class="cls-38" d="M60.159,34.729l.048.168c.004.013.02.016.028.006h0s.005-.01.004-.016l-.048-.168c-.004-.013-.02-.016-.028-.006h0s-.005.01-.004.016Z"/>
          <path class="cls-38" d="M60.117,34.777l.048.168c.004.013.02.016.028.006h0s.005-.01.004-.016l-.048-.168c-.004-.013-.02-.016-.028-.006h0s-.005.01-.004.016Z"/>
          <path class="cls-38" d="M60.074,34.825l.048.168c.004.013.02.016.028.006h0s.005-.01.004-.016l-.048-.168c-.004-.013-.02-.016-.028-.006h0s-.005.01-.004.016Z"/>
        </g>
      </g>
      <path class="cls-4" d="M57.244,35.377c.327.33.88.485,1.208.626.328.141.629-.267.275-.513-.354-.246-.629-.385-.817-.608-.188-.223-1.014.143-.666.494Z"/>
      <g>
        <path class="cls-4" d="M35.559,35.06c.477.031.829.457.769.931-.124.984-.293,2.269.097,2.859.495.748.539,2.087-.543,2.744s-2.661.088-1.65-1.17c1.011-1.258.23-1.592.274-2.62.019-.454.151-1.584.174-1.967.027-.458.422-.806.88-.777h0Z"/>
        <path class="cls-9" d="M42.218,13.165c-1.824,2.472-5.293,8.989-5.97,10.663-1.167,2.887,2.712,4.535,4.182,1.941,1.632-2.881,5.197-7.86,6.689-9.641,2.605-3.109-1.481-7.598-4.901-2.963Z"/>
        <path class="cls-9" d="M36.78,37.354l-2.546-.256s.457-5.517,1.122-9.594c.181-1.112.368-2.078.722-3.177.767-2.385,5.525-1.665,3.726,3.095-.406,1.073-3.023,9.933-3.023,9.933Z"/>
      </g>
      <g>
        <rect class="cls-19" x="13.176" y="72.351" width=".464" height="2.198" transform="translate(-15.628 142.237) rotate(-146.77)"/>
        <circle class="cls-19" cx="13.087" cy="73.94" r=".909"/>
        <path class="cls-33" d="M13.516,74.221c-.155.237-.474.303-.711.148-.237-.155-.303-.474-.148-.711s.474-.303.711-.148c.237.155.303.474.148.711Z"/>
        <rect class="cls-34" x="23.893" y="46.663" width="12.99" height=".606" transform="translate(-25.551 46.647) rotate(-56.77)"/>
        <rect class="cls-33" x="24.059" y="46.97" width="12.99" height=".209" transform="translate(-25.567 46.835) rotate(-56.77)"/>
        <path class="cls-7" d="M23.423,43.347l-16.512,25.205-1.053-.69c-.416-.272-.532-.83-.26-1.246l15.526-23.699c.272-.416.83-.532,1.246-.26l1.053.69Z"/>
        <path class="cls-7" d="M30.446,49.023l-15.526,23.699c-.272.416-.83.532-1.246.26l-6.396-4.19,16.512-25.205,6.396,4.19c.416.272.532.83.26,1.246Z"/>
        <rect class="cls-3" x=".285" y="55.85" width="30.132" height=".438" transform="translate(-39.963 38.184) rotate(-56.77)"/>
        <path class="cls-23" d="M30.446,49.023l-15.526,23.699c-.272.416-.83.532-1.246.26l-7.816-5.12c-.416-.272-.532-.83-.26-1.246l.073-.111c1.046-.188,2.059-.423,3.046-.71.22-.064.438-.13.654-.199,7.59-2.414,13.59-7.971,20.328-18.136l.486.318c.416.272.532.83.26,1.246Z"/>
        <path class="cls-10" d="M23.172,43.127c.021.014.027.043.013.063-.291.422-.722.692-1.189.789-.467.098-.97.022-1.405-.249-.021-.013-.027-.042-.014-.063l.52-.794c.28-.427.853-.547,1.28-.267l.794.52Z"/>
        <path class="cls-20" d="M22.624,42.768c-.369.563-1.124.72-1.687.352l.161-.246c.28-.427.853-.547,1.28-.267l.246.161Z"/>
        <path class="cls-10" d="M6.608,68.411c.021.014.05.008.063-.014.271-.435.346-.938.249-1.405-.097-.467-.367-.898-.789-1.189-.021-.014-.05-.008-.063.013l-.52.794c-.28.427-.16,1,.266,1.28l.794.52Z"/>
        <path class="cls-20" d="M6.06,68.052c.369-.563.211-1.319-.352-1.687l-.161.246c-.28.427-.16,1,.266,1.28l.246.161Z"/>
        <path class="cls-10" d="M29.432,47.229c-.021-.014-.05-.008-.063.014-.271.435-.346.938-.249,1.405.097.467.367.898.789,1.189.021.014.05.008.063-.013l.52-.794c.28-.427.16-1-.266-1.28l-.794-.52Z"/>
        <path class="cls-20" d="M29.98,47.588c-.369.563-.211,1.319.352,1.687l.161-.246c.28-.427.16-1-.266-1.28l-.246-.161Z"/>
        <path class="cls-10" d="M12.869,72.512c-.021-.014-.027-.043-.013-.063.291-.422.722-.692,1.189-.789.467-.098.97-.022,1.405.249.021.013.027.042.014.063l-.52.794c-.28.427-.853.547-1.28.267l-.794-.52Z"/>
        <path class="cls-20" d="M13.417,72.871c.369-.563,1.124-.72,1.687-.352l-.161.246c-.28.427-.853.547-1.28.267l-.246-.161Z"/>
        <path class="cls-30" d="M17.608,61.905h0c-.396-.26-.507-.792-.248-1.188l2.999-4.578c.26-.396.792-.507,1.188-.248h0c.396.26.507.792.248,1.188l-2.999,4.578c-.26.396-.792.507-1.188.248Z"/>
        <path class="cls-14" d="M17.582,61.837h0c-.396-.26-.507-.792-.248-1.188l2.999-4.578c.26-.396.792-.507,1.188-.248h0c.396.26.507.792.248,1.188l-2.999,4.578c-.26.396-.792.507-1.188.248Z"/>
        <path class="cls-30" d="M17.914,61.33h0c-.122-.08-.156-.243-.076-.365l2.986-4.559c.08-.122.243-.156.365-.076h0c.122.08.156.243.076.365l-2.986,4.559c-.08.122-.243.156-.365.076Z"/>
        <path class="cls-3" d="M18.758,60.523l-.479.731c-.08.122-.243.156-.365.076-.122-.08-.156-.243-.076-.365l.479-.731c-.08.122-.046.286.076.365.122.08.286.046.365-.076Z"/>
        <path class="cls-6" d="M35.051,39.847h0c.233.153.298.466.146.699l-1.691,2.581c-.056.086-.171.11-.257.054l-.534-.35c-.086-.056-.11-.171-.054-.257l1.691-2.581c.153-.233.466-.298.699-.146Z"/>
        <path class="cls-25" d="M35.197,40.546l-.139.212c-.036-.099-.103-.188-.198-.25-.233-.153-.546-.088-.699.145l-1.433,2.187-.014-.009c-.086-.056-.11-.171-.054-.257l1.691-2.581c.153-.233.466-.299.699-.146.233.153.299.466.146.699Z"/>
        <path class="cls-15" d="M9.372,65.595l-2.094,3.196-.367-.24,1.806-2.757c.22-.064.438-.13.654-.199Z"/>
        <g>
          <rect class="cls-30" x="23.494" y="43.376" width=".115" height=".351" transform="translate(-25.785 39.386) rotate(-56.77)"/>
          <rect class="cls-30" x="23.331" y="43.624" width=".115" height=".351" transform="translate(-26.066 39.362) rotate(-56.77)"/>
          <rect class="cls-30" x="23.169" y="43.872" width=".115" height=".351" transform="translate(-26.346 39.338) rotate(-56.77)"/>
          <rect class="cls-30" x="23.007" y="44.12" width=".115" height=".351" transform="translate(-26.627 39.314) rotate(-56.77)"/>
          <rect class="cls-30" x="22.844" y="44.368" width=".115" height=".351" transform="translate(-26.908 39.291) rotate(-56.771)"/>
          <rect class="cls-30" x="22.682" y="44.616" width=".115" height=".351" transform="translate(-27.189 39.267) rotate(-56.77)"/>
          <rect class="cls-30" x="22.52" y="44.863" width=".115" height=".351" transform="translate(-27.469 39.243) rotate(-56.77)"/>
          <rect class="cls-30" x="22.357" y="45.111" width=".115" height=".351" transform="translate(-27.75 39.219) rotate(-56.77)"/>
          <rect class="cls-30" x="22.195" y="45.359" width=".115" height=".351" transform="translate(-28.031 39.195) rotate(-56.77)"/>
          <rect class="cls-30" x="22.032" y="45.607" width=".115" height=".351" transform="translate(-28.312 39.172) rotate(-56.771)"/>
          <rect class="cls-30" x="21.87" y="45.855" width=".115" height=".351" transform="translate(-28.592 39.148) rotate(-56.77)"/>
          <rect class="cls-30" x="21.708" y="46.103" width=".115" height=".351" transform="translate(-28.873 39.124) rotate(-56.77)"/>
          <rect class="cls-30" x="21.545" y="46.351" width=".115" height=".351" transform="translate(-29.154 39.1) rotate(-56.77)"/>
          <rect class="cls-30" x="21.383" y="46.599" width=".115" height=".351" transform="translate(-29.435 39.076) rotate(-56.77)"/>
          <rect class="cls-30" x="21.22" y="46.846" width=".115" height=".351" transform="translate(-29.715 39.053) rotate(-56.771)"/>
          <rect class="cls-30" x="21.058" y="47.094" width=".115" height=".351" transform="translate(-29.996 39.029) rotate(-56.77)"/>
          <rect class="cls-30" x="20.896" y="47.342" width=".115" height=".351" transform="translate(-30.277 39.005) rotate(-56.77)"/>
          <rect class="cls-30" x="20.733" y="47.59" width=".115" height=".351" transform="translate(-30.558 38.981) rotate(-56.77)"/>
          <rect class="cls-30" x="20.571" y="47.838" width=".115" height=".351" transform="translate(-30.838 38.957) rotate(-56.77)"/>
          <rect class="cls-30" x="20.409" y="48.086" width=".115" height=".351" transform="translate(-31.119 38.934) rotate(-56.77)"/>
          <rect class="cls-30" x="20.246" y="48.334" width=".115" height=".351" transform="translate(-31.4 38.91) rotate(-56.77)"/>
          <rect class="cls-30" x="20.084" y="48.582" width=".115" height=".351" transform="translate(-31.681 38.886) rotate(-56.77)"/>
          <rect class="cls-30" x="19.921" y="48.829" width=".115" height=".351" transform="translate(-31.961 38.862) rotate(-56.77)"/>
          <rect class="cls-30" x="19.759" y="49.077" width=".115" height=".351" transform="translate(-32.242 38.838) rotate(-56.77)"/>
          <rect class="cls-30" x="19.597" y="49.325" width=".115" height=".351" transform="translate(-32.523 38.815) rotate(-56.77)"/>
          <rect class="cls-30" x="19.434" y="49.573" width=".115" height=".351" transform="translate(-32.804 38.791) rotate(-56.77)"/>
          <rect class="cls-30" x="19.272" y="49.821" width=".115" height=".351" transform="translate(-33.084 38.767) rotate(-56.77)"/>
          <rect class="cls-30" x="19.109" y="50.069" width=".115" height=".351" transform="translate(-33.365 38.743) rotate(-56.77)"/>
          <rect class="cls-30" x="18.947" y="50.317" width=".115" height=".351" transform="translate(-33.646 38.719) rotate(-56.77)"/>
          <rect class="cls-30" x="18.785" y="50.565" width=".115" height=".351" transform="translate(-33.927 38.696) rotate(-56.77)"/>
          <rect class="cls-30" x="18.622" y="50.812" width=".115" height=".351" transform="translate(-34.207 38.672) rotate(-56.77)"/>
          <rect class="cls-30" x="18.46" y="51.06" width=".115" height=".351" transform="translate(-34.488 38.648) rotate(-56.77)"/>
          <rect class="cls-30" x="18.297" y="51.308" width=".115" height=".351" transform="translate(-34.769 38.624) rotate(-56.77)"/>
          <rect class="cls-30" x="18.135" y="51.556" width=".115" height=".351" transform="translate(-35.049 38.601) rotate(-56.77)"/>
          <rect class="cls-30" x="17.973" y="51.804" width=".115" height=".351" transform="translate(-35.33 38.577) rotate(-56.77)"/>
          <rect class="cls-30" x="17.81" y="52.052" width=".115" height=".351" transform="translate(-35.611 38.553) rotate(-56.77)"/>
          <rect class="cls-30" x="17.648" y="52.3" width=".115" height=".351" transform="translate(-35.892 38.529) rotate(-56.77)"/>
          <rect class="cls-30" x="17.486" y="52.548" width=".115" height=".351" transform="translate(-36.172 38.505) rotate(-56.77)"/>
          <rect class="cls-30" x="17.323" y="52.795" width=".115" height=".351" transform="translate(-36.453 38.482) rotate(-56.77)"/>
          <rect class="cls-30" x="17.161" y="53.043" width=".115" height=".351" transform="translate(-36.734 38.458) rotate(-56.77)"/>
          <rect class="cls-30" x="16.998" y="53.291" width=".115" height=".351" transform="translate(-37.015 38.434) rotate(-56.77)"/>
          <rect class="cls-30" x="16.836" y="53.539" width=".115" height=".351" transform="translate(-37.295 38.41) rotate(-56.77)"/>
          <rect class="cls-30" x="16.674" y="53.787" width=".115" height=".351" transform="translate(-37.576 38.386) rotate(-56.77)"/>
          <rect class="cls-30" x="16.511" y="54.035" width=".115" height=".351" transform="translate(-37.857 38.363) rotate(-56.77)"/>
          <rect class="cls-30" x="16.349" y="54.283" width=".115" height=".351" transform="translate(-38.138 38.339) rotate(-56.77)"/>
          <rect class="cls-30" x="16.186" y="54.531" width=".115" height=".351" transform="translate(-38.418 38.315) rotate(-56.77)"/>
          <rect class="cls-30" x="16.024" y="54.778" width=".115" height=".351" transform="translate(-38.699 38.291) rotate(-56.77)"/>
          <rect class="cls-30" x="15.862" y="55.026" width=".115" height=".351" transform="translate(-38.98 38.267) rotate(-56.77)"/>
          <rect class="cls-30" x="15.699" y="55.274" width=".115" height=".351" transform="translate(-39.261 38.244) rotate(-56.77)"/>
          <rect class="cls-30" x="15.537" y="55.522" width=".115" height=".351" transform="translate(-39.541 38.22) rotate(-56.77)"/>
          <rect class="cls-30" x="15.374" y="55.77" width=".115" height=".351" transform="translate(-39.822 38.196) rotate(-56.77)"/>
          <rect class="cls-30" x="15.212" y="56.018" width=".115" height=".351" transform="translate(-40.103 38.172) rotate(-56.77)"/>
          <rect class="cls-30" x="15.05" y="56.266" width=".115" height=".351" transform="translate(-40.384 38.148) rotate(-56.77)"/>
          <rect class="cls-30" x="14.887" y="56.514" width=".115" height=".351" transform="translate(-40.664 38.125) rotate(-56.77)"/>
          <rect class="cls-30" x="14.725" y="56.762" width=".115" height=".351" transform="translate(-40.945 38.101) rotate(-56.77)"/>
          <rect class="cls-30" x="14.563" y="57.009" width=".115" height=".351" transform="translate(-41.226 38.077) rotate(-56.77)"/>
          <rect class="cls-30" x="14.4" y="57.257" width=".115" height=".351" transform="translate(-41.507 38.053) rotate(-56.77)"/>
          <rect class="cls-30" x="14.238" y="57.505" width=".115" height=".351" transform="translate(-41.787 38.029) rotate(-56.77)"/>
          <rect class="cls-30" x="14.075" y="57.753" width=".115" height=".351" transform="translate(-42.068 38.006) rotate(-56.77)"/>
          <rect class="cls-30" x="13.913" y="58.001" width=".115" height=".351" transform="translate(-42.349 37.982) rotate(-56.77)"/>
          <rect class="cls-30" x="13.751" y="58.249" width=".115" height=".351" transform="translate(-42.63 37.958) rotate(-56.77)"/>
          <rect class="cls-30" x="13.588" y="58.497" width=".115" height=".351" transform="translate(-42.91 37.934) rotate(-56.77)"/>
          <rect class="cls-30" x="13.426" y="58.745" width=".115" height=".351" transform="translate(-43.191 37.91) rotate(-56.77)"/>
          <rect class="cls-30" x="13.263" y="58.992" width=".115" height=".351" transform="translate(-43.472 37.887) rotate(-56.77)"/>
          <rect class="cls-30" x="13.101" y="59.24" width=".115" height=".351" transform="translate(-43.753 37.863) rotate(-56.77)"/>
          <rect class="cls-30" x="12.939" y="59.488" width=".115" height=".351" transform="translate(-44.033 37.839) rotate(-56.77)"/>
          <rect class="cls-30" x="12.776" y="59.736" width=".115" height=".351" transform="translate(-44.314 37.815) rotate(-56.77)"/>
          <rect class="cls-30" x="12.614" y="59.984" width=".115" height=".351" transform="translate(-44.595 37.792) rotate(-56.77)"/>
          <rect class="cls-30" x="12.451" y="60.232" width=".115" height=".351" transform="translate(-44.876 37.768) rotate(-56.77)"/>
          <rect class="cls-30" x="12.289" y="60.48" width=".115" height=".351" transform="translate(-45.156 37.744) rotate(-56.77)"/>
          <rect class="cls-30" x="12.127" y="60.728" width=".115" height=".351" transform="translate(-45.437 37.72) rotate(-56.77)"/>
          <rect class="cls-30" x="11.964" y="60.975" width=".115" height=".351" transform="translate(-45.718 37.696) rotate(-56.77)"/>
          <rect class="cls-30" x="11.802" y="61.223" width=".115" height=".351" transform="translate(-45.998 37.673) rotate(-56.77)"/>
          <rect class="cls-30" x="11.64" y="61.471" width=".115" height=".351" transform="translate(-46.279 37.649) rotate(-56.77)"/>
          <rect class="cls-30" x="11.477" y="61.719" width=".115" height=".351" transform="translate(-46.56 37.625) rotate(-56.77)"/>
          <rect class="cls-30" x="11.315" y="61.967" width=".115" height=".351" transform="translate(-46.841 37.601) rotate(-56.77)"/>
          <rect class="cls-30" x="11.152" y="62.215" width=".115" height=".351" transform="translate(-47.121 37.577) rotate(-56.77)"/>
          <rect class="cls-30" x="10.99" y="62.463" width=".115" height=".351" transform="translate(-47.402 37.554) rotate(-56.77)"/>
          <rect class="cls-30" x="10.828" y="62.711" width=".115" height=".351" transform="translate(-47.683 37.53) rotate(-56.77)"/>
          <rect class="cls-30" x="10.665" y="62.958" width=".115" height=".351" transform="translate(-47.964 37.506) rotate(-56.77)"/>
          <rect class="cls-30" x="10.503" y="63.206" width=".115" height=".351" transform="translate(-48.244 37.482) rotate(-56.77)"/>
          <rect class="cls-30" x="10.34" y="63.454" width=".115" height=".351" transform="translate(-48.525 37.458) rotate(-56.77)"/>
          <rect class="cls-30" x="10.178" y="63.702" width=".115" height=".351" transform="translate(-48.806 37.435) rotate(-56.77)"/>
          <rect class="cls-30" x="10.016" y="63.95" width=".115" height=".351" transform="translate(-49.087 37.411) rotate(-56.77)"/>
          <rect class="cls-30" x="9.853" y="64.198" width=".115" height=".351" transform="translate(-49.367 37.387) rotate(-56.77)"/>
          <rect class="cls-30" x="9.691" y="64.446" width=".115" height=".351" transform="translate(-49.648 37.363) rotate(-56.77)"/>
          <rect class="cls-30" x="9.528" y="64.694" width=".115" height=".351" transform="translate(-49.929 37.339) rotate(-56.77)"/>
          <rect class="cls-30" x="9.366" y="64.941" width=".115" height=".351" transform="translate(-50.21 37.316) rotate(-56.77)"/>
          <rect class="cls-30" x="9.204" y="65.189" width=".115" height=".351" transform="translate(-50.49 37.292) rotate(-56.77)"/>
          <rect class="cls-30" x="9.041" y="65.437" width=".115" height=".351" transform="translate(-50.771 37.268) rotate(-56.77)"/>
          <rect class="cls-30" x="8.879" y="65.685" width=".115" height=".351" transform="translate(-51.052 37.244) rotate(-56.77)"/>
          <rect class="cls-30" x="8.717" y="65.933" width=".115" height=".351" transform="translate(-51.333 37.22) rotate(-56.77)"/>
          <rect class="cls-30" x="8.554" y="66.181" width=".115" height=".351" transform="translate(-51.614 37.197) rotate(-56.771)"/>
          <rect class="cls-30" x="8.392" y="66.429" width=".115" height=".351" transform="translate(-51.894 37.173) rotate(-56.77)"/>
          <rect class="cls-30" x="8.229" y="66.677" width=".115" height=".351" transform="translate(-52.175 37.149) rotate(-56.77)"/>
          <rect class="cls-30" x="8.067" y="66.924" width=".115" height=".351" transform="translate(-52.456 37.125) rotate(-56.77)"/>
          <rect class="cls-30" x="7.905" y="67.172" width=".115" height=".351" transform="translate(-52.736 37.101) rotate(-56.77)"/>
          <rect class="cls-30" x="7.742" y="67.42" width=".115" height=".351" transform="translate(-53.017 37.078) rotate(-56.771)"/>
          <rect class="cls-30" x="7.58" y="67.668" width=".115" height=".351" transform="translate(-53.298 37.054) rotate(-56.77)"/>
          <rect class="cls-30" x="7.417" y="67.916" width=".115" height=".351" transform="translate(-53.579 37.03) rotate(-56.77)"/>
          <rect class="cls-30" x="7.255" y="68.164" width=".115" height=".351" transform="translate(-53.859 37.006) rotate(-56.77)"/>
          <rect class="cls-30" x="7.093" y="68.412" width=".115" height=".351" transform="translate(-54.14 36.983) rotate(-56.77)"/>
        </g>
      </g>
      <path class="cls-9" d="M40.107,13.265c-2.034.215-4.593-.862-2.91-3.714,1.84-3.118,11.306-1.857,13.125,3.834.168.526-.352,1.011-.86.794-1.464-.624-4.428-1.434-9.355-.914Z"/>
    </g>
  </g>
</svg>